<svg xmlns="http://www.w3.org/2000/svg" xmlns:xlink="http://www.w3.org/1999/xlink" viewBox="0 0 135.31 139.83">
  <defs>
    <clipPath id="a">
      <rect x="-57.3" y="-83.13" width="431.14" height="322.59" transform="translate(-17.81 65.75) rotate(-22.25)" style="fill: none"/>
    </clipPath>
  </defs>
  <title>art2</title>
  <g style="clip-path: url(#a)">
    <path d="M-6.7,162.43l.1,0a.1.1,0,0,0,0,.16A59.83,59.83,0,0,1,6.63,173.24a31.43,31.43,0,0,0,4.57,4.52,10.06,10.06,0,0,0,1.93,1.13,5.66,5.66,0,0,1-.92-.06.15.15,0,0,0-.1.25c3.58,3.67,8.61,5.5,13.61,6.22.15,0,.21-.19.06-.22a34.91,34.91,0,0,1-8.16-2.44,17.35,17.35,0,0,1-3.91-2.41c-1.46-1.27-.79-1.13,1-.85.27,0,.39-.34.11-.42-4.59-1.23-7.44-6.14-10.78-9.22A51.76,51.76,0,0,0-1.81,165c5.84,3.08,11.21,7,17,10.1.08,0,.15-.08.07-.12-6-3.4-11.68-7.43-17.88-10.49-.37-.24-.74-.47-1.12-.69,3.87,1.33,7.65,2.95,11.7,3.64v0c-4.11-.79-7.9-2.58-11.88-3.81,0,0-.07,0-.07.06a22.84,22.84,0,0,0-2.56-1.25,15.39,15.39,0,0,0,4.58-1.57c4.29-1.79,8.24-4.35,12.81-5.5v-.06a42.72,42.72,0,0,0-9.73,3.78c1-.65,2-1.31,3-1.93a.49.49,0,0,0,0-.83,17.25,17.25,0,0,1-1.93-1.52c2.28-2,4.73-3.72,7.13-5.55h.19a.24.24,0,0,0,0-.47l-.65,0c7.16-3,14.12-6.68,22.14-6.27.15,0,.27-.22.14-.33a21.85,21.85,0,0,0-1.82-1.38c-1.42-.91.3-.44,1-.4a29.26,29.26,0,0,1,5.79,1A67.74,67.74,0,0,1,47,145.52a.2.2,0,0,0,.27-.27c-.22-.4-.45-.78-.68-1.15.81.54,1.79,1.52,2.27,1.86,1.21.85,2.44,1.69,3.61,2.59a22.09,22.09,0,0,1,6.72,7.9l0,0-.11,0c-.11,0-.07.19,0,.17l.62-.14h0l.08.08.18-.15c1.36-.32,2.7-.74,4.08-1v-.06a38.06,38.06,0,0,0-3.74.75,13.33,13.33,0,0,1,6.72-2.69v0a12.7,12.7,0,0,0-7,2.78l-.7.16a.08.08,0,0,0,0-.07c-1.13-3.54-3.64-6.09-6.49-8.35l-.58-.45a.1.1,0,0,0,0-.08A66.75,66.75,0,0,0,39.7,129.64l-.06.06A71.89,71.89,0,0,1,52,147.34c-1.08-.81-2.2-1.57-3.3-2.35-.74-.52-2-1.92-2.94-1.88a.31.31,0,0,0-.22.52c1.22,1.3,1.62,1.58-.45.68l-2.09-.9c-1.56-.65-3.12-1.31-4.72-1.83a31.94,31.94,0,0,0-10.33-1.67.18.18,0,0,0-.09.34,15.1,15.1,0,0,1,1.92,1.22q1.11.81-.28.51a33.74,33.74,0,0,0-3.71.19,29.21,29.21,0,0,0-6.32,1.46C15.28,145,11.3,147,7.25,148.69c-.31.13-.14.6.16.6.56,0,1.1,0,1.66-.05a29.62,29.62,0,0,0-8,5.15.54.54,0,0,0,0,.76,14.92,14.92,0,0,0,2,1.59,39.41,39.41,0,0,1-9.82,5.44.14.14,0,0,0,.07.27" style="fill: #601524"/>
    <path d="M27.72,78.29c2.95.53,7.38.93,9.54,3.25a.37.37,0,0,0,.64-.26,9.19,9.19,0,0,0-.4-2.19c5.26,3,10.72,5.77,14.07,11.08a.32.32,0,0,0,.58-.24,10.43,10.43,0,0,1-.21-2.28c3.39,4.48,7,8.69,8.51,14.25A.29.29,0,0,0,61,102a5.68,5.68,0,0,0,.5-1,40.4,40.4,0,0,0,2.17,10,.39.39,0,0,0,.7.09c.53-.68,1-1.38,1.54-2.07a37.24,37.24,0,0,1-.48,10.11c-.05.33.33.64.6.35A8.85,8.85,0,0,0,67,118.06c-.06,5.94.2,12-2.76,17.41-2.51,4.55-5.63,9.07-9.78,12.28-.17.13,0,.38.21.28,4.6-2.52,8.18-7.86,10.57-12.41,3.14-6,2.76-12.72,2.55-19.27a.39.39,0,0,0-.76-.1,8.63,8.63,0,0,1-.79,1.64,32.85,32.85,0,0,0,.2-10c-.06-.38-.54-.33-.72-.1-.57.76-1.12,1.53-1.68,2.3-1.34-3.67-1.58-7.66-2.29-11.49-.07-.36-.69-.28-.65.09a4.47,4.47,0,0,1-.38,2.35c-1.63-5.25-5.26-9.82-8.85-13.89-.1-.12-.31,0-.22.17l.06.07a.08.08,0,0,0,0,0c-.06.47-.12.92-.16,1.37C48.51,83.54,42,80.78,37,77.81c-.29-.17-.75.11-.61.47A13.44,13.44,0,0,1,37,80.42c-2.29-1.55-5.57-2-8.14-2.52-2.83-.55-5.68-1-8.52-1.49a.2.2,0,0,0-.15.36,6.87,6.87,0,0,0,2.58.69c1.64.3,3.3.53,4.94.82" style="fill: #601524"/>
    <path d="M28.48,139.68a.18.18,0,0,0,.13-.33c-4.51-2.15-6.15-7-9.18-10.69a22.64,22.64,0,0,0,3.9-.26l.34.29a.32.32,0,0,0,.45-.45c-3.65-4-7.94-7.93-9.67-13.18a6.33,6.33,0,0,0,2.88.88.45.45,0,0,0,.43-.57c-1.27-3.37-2.87-6.6-3.82-10.07,1.52.87,3,1.87,4.56,2.6a.4.4,0,0,0,.58-.44c-1.08-4.12-3.44-7.87-3.87-12.15.67.58,1.33,1.18,2,1.8.15.15.49.06.46-.19-.42-3.21-1.58-6.43-1-9.67a11.63,11.63,0,0,1,.76,1.15,152.4,152.4,0,0,0,5.31,22.43l.11,0a175.07,175.07,0,0,1-5.32-22.22c.25.45.49.91.72,1.39s.76.18.76-.21c0-4,0-7.9,1.08-11.77,0-.13-.17-.23-.23-.1-1.42,3.21-1.62,6.84-1.66,10.34a11.91,11.91,0,0,0-1.49-2,.33.33,0,0,0-.55.14c-.79,3.3.29,6.51.86,9.76-.61-.61-1.23-1.2-1.89-1.76a.31.31,0,0,0-.52.21c.08,4.38,2.34,8.15,3.55,12.26-1.59-.81-3-1.88-4.6-2.75a.42.42,0,0,0-.61.47c.74,3.64,2.41,7,3.76,10.39A5.26,5.26,0,0,1,14,113.62a.45.45,0,0,0-.75.43c1.34,5.58,5.58,10.47,9.88,14.15a24.31,24.31,0,0,1-4.35-.25.33.33,0,0,0-.32.54c3.29,3.7,4.93,9.48,10,11.18" style="fill: #601524"/>
    <path d="M60.29,79.93c-.24-.12-.53.21-.3.39l.39.32a.19.19,0,0,0,0,.19c3.18,6.28.13,13.32,2.33,19.8a17.09,17.09,0,0,0,8.24,9.44c-1.48,5-1.5,9.88,1.16,14.5-.13,1.35-.37,2.68-.58,4,0,.12.16.18.18.05a27.48,27.48,0,0,0,.6-3.84c.26.12.64-.09.53-.42a27.93,27.93,0,0,1-2-6.95,30.75,30.75,0,0,1,.42-7.19,22.55,22.55,0,0,0,2.11,1c.33.13.51-.38.24-.55-5.27-3.36-9.84-7.32-10.44-14-.45-4.91.8-10.52-1.72-15C63.12,83,64.05,85,65,86.77l.1-.06c-1-1.9-1.94-3.91-3.76-5.13l-.17-.26a27.86,27.86,0,0,1,8.75,12.32c1.35,3.89,1.58,8.63,5.21,11.22.08.06.16,0,.18-.09s0,.12,0,.17c.06.58,1,.6.92,0C76,100.76,78,97.31,79.84,93.7a29.48,29.48,0,0,0,1.7-4,16.07,16.07,0,0,1-1.65,5.54l.09.06a15.82,15.82,0,0,0,1.7-6,18.87,18.87,0,0,0,.6-2.55c.57,2.88.13,5.79.84,8.7s2.71,5.41,3.24,8.42c0,.1.18.08.18,0h0a.2.2,0,0,0,.26,0c1.72-1.76,3.81-2,5.91-3.07s3.73-2.91,5.37-4.64c3.64-3.84,7.25-8,12.23-10l-.57.59a1.52,1.52,0,0,0,.09-.33l-.07,0a2.05,2.05,0,0,1-.32.67l-.76.86c-.48.44-1,.84-1.39,1.17a18.19,18.19,0,0,0-2.52,2.44l.1.08a33,33,0,0,1,3.11-2.9l.11-.1c-1.52,1.83-3,3.77-4.36,5.63-2.17,2.87-3.82,6-5.81,8.94-2.91,4.32-7.83,10.12-13.51,10.51l0-.07c-3.46-.73-6.91-1.66-10.46-1.65.06-.12.12-.25.18-.37a2.66,2.66,0,0,1,.49-.78l0,0a1.5,1.5,0,0,0-.51.66c-.1.18-.19.36-.28.55-.43,0-.86,0-1.29,0-.11,0-.12.19,0,.18.4,0,.79,0,1.19,0,0,.11-.1.23-.15.34l.11,0c.06-.13.12-.26.18-.39a61.41,61.41,0,0,1,10.43,1.51,8.82,8.82,0,0,1-1.35,0c-.11,0-.14.18,0,.2a8.38,8.38,0,0,0,1,.13A7.52,7.52,0,0,1,82.14,117l.14.1A6,6,0,0,0,84,113.9c.14,0,.29,0,.43,0-.69,3.47-3.36,5.62-5.85,7.89a17,17,0,0,0-2.41,2.62l.11-.29-.07,0c-.11.25-.22.5-.33.75a6.71,6.71,0,0,0-1,2.63c-.3.88-.57,1.76-.79,2.67a.08.08,0,0,0,.16,0q.28-1,.58-1.91a.39.39,0,0,0,.75,0c1.51-5.75,8.15-8.39,9-14.37,5.22,0,9.84-4.84,12.8-8.62.62-.79,1.18-1.61,1.71-2.45a72,72,0,0,0,15.78,7.93l0-.07c-5.42-2.37-10.45-5.34-15.69-8.05.73-1.16,1.43-2.34,2.15-3.51,1.93-.53,3.85-1.2,5.73-1.91l0-.09c-1.81.56-3.71,1-5.48,1.65.51-.81,1-1.62,1.6-2.39,2.56-3.48,5.81-6.65,8-10.41a.27.27,0,0,0-.42-.32l-.2.2c-5.16,1-9,5.48-12.41,9.14l-.78.83A31.67,31.67,0,0,1,104,86.18l-.07-.07A28.86,28.86,0,0,0,97,95.91a.08.08,0,0,0,.06.11q-.53.56-1.07,1.1a41.72,41.72,0,0,1,5.23-12.29l-.07,0c-2.39,3.9-4.65,8-5.41,12.57a13.68,13.68,0,0,1-4.95,3.3,11.1,11.1,0,0,0-3.39,1.65c.45-3,1.18-6,1.91-9l-.09,0a93.51,93.51,0,0,0-2,9.24,4,4,0,0,0-.7.88,10.49,10.49,0,0,0-.37-2.05,48.89,48.89,0,0,1,.11-9.16h-.06a43.88,43.88,0,0,0-.19,8.69c-.29-.94-.67-1.85-1-2.77,0,0,.11,0,.1-.07a32.61,32.61,0,0,1-.23-5h-.12a23.13,23.13,0,0,0,.19,4.86,13.85,13.85,0,0,1-1.06-4.16c-.2-3.37-.06-6.59-1.41-9.75-.19-.45-.93-.22-.9.24.48,7.51-6.78,13-6.21,20.47a.11.11,0,0,0,0-.06c-2.16-2.13-2.8-5-3.49-7.87-.05-.21-.11-.41-.17-.62a39.46,39.46,0,0,1-.35-7.32h-.13a28.91,28.91,0,0,0,.21,6.31A31.44,31.44,0,0,0,70.29,92a30.44,30.44,0,0,1,.1-4h-.06a22.93,22.93,0,0,0-.15,3.75c-.2-.48-.41-1-.64-1.43-2.07-4.18-5-8.13-9.25-10.35" style="fill: #601524"/>
    <path d="M76.28,80.42A11.31,11.31,0,0,0,68.54,87c-.14.37.41.55.6.26a18.25,18.25,0,0,1,3.27-4.38A12.3,12.3,0,0,1,75.58,81c-2.37,2.5-3.23,8.24-3.18,10.55a.33.33,0,0,0,.65.09,62.85,62.85,0,0,1,1.61-6.56c1-2.58,2.22-4,4.9-4.57l0,0a18,18,0,0,1,11.22,6.32c3.21,3.94,2.23,8.05,1.66,12.67,0,.2.29.23.34,0,1.3-4.58,1.9-9.43-1.4-13.31a19.43,19.43,0,0,0-6.21-5,40.73,40.73,0,0,1-6.09-8.45l-.05,0a33.86,33.86,0,0,0,5.76,8.23,15.45,15.45,0,0,0-5.11-1.35.35.35,0,0,0-.37.3,3.18,3.18,0,0,0-3.05.35" style="fill: #601524"/>
    <path d="M117.09,184c.6.64,1.22,1.26,1.86,1.87a13.52,13.52,0,0,0,1,1.27l-.07,0-1.53-1.21c-.44-.62-.86-1.26-1.26-1.91m2.78,3.41.75.53a.08.08,0,0,0,.11,0l.39.35c.26.22.76-.08.52-.4-3.17-4.14-4.72-8.54-6.7-13.3-1.39-3.36-3.13-6.38-6-8.55,1.06.18,2.11.43,3.18.58.43.06.8-.41.45-.77-3.44-3.44-7.69-5.22-12.18-6.75,1.11.06,2.23.14,3.35.18.33,0,.37-.46.08-.56-6.28-2.14-13.13-4.48-19.82-3.19,1.18-1.43,2.31-2.91,3.46-4.34.33-.41-.08-1.06-.59-.76-3.17,1.87-6.75.83-10.21.84-1.18,0-2.36,0-3.54,0,4.19-1.17,8.68-1.72,12.45-3.95A24.71,24.71,0,0,0,94.46,139c.16-.26-.1-.67-.42-.55a10.42,10.42,0,0,1-1.76.45c2.09-3.88,4-7.75,4-12.28a.34.34,0,0,0-.5-.29c-1.35.67-2.48,1.62-3.76,2.39-1.08.65-.93-.22-.95-1.14,0-.51,0-1,0-1.54a.33.33,0,0,0-.33-.33,22.52,22.52,0,0,0-9.8,2.82l0,0a3.33,3.33,0,0,1,.19-1.63c.11-.17-.08-.47-.29-.38a33,33,0,0,0-8.36,5.72,13.86,13.86,0,0,0-.58-2.86.3.3,0,0,0-.43-.18c-8,3.73-2.87,14.21-5.73,20.63a.27.27,0,0,0,.46.27c2-3.06,1.24-7.25,1.23-10.69a15.45,15.45,0,0,1,.74-6,6.37,6.37,0,0,1,2.26-3c.24-.16.95-.9,1.09-.23a13.75,13.75,0,0,1,.32,2.71.35.35,0,0,0,.59.25c1.84-1.52,3.67-3.06,5.65-4.4.78-.52,1.57-1,2.38-1.48.38-.22.41.91.41,1.28a.25.25,0,0,0,.33.32,31,31,0,0,1,6.2-2.07,9.47,9.47,0,0,1,2.53-.48c-2.66,1-5.63,2.52-7,5.06l.1.05c1.49-2.5,4.42-4,7.05-5.09a.42.42,0,0,1,.38.42,23.84,23.84,0,0,0,.2,3c0,.23.32.29.49.2,1.32-.66,2.49-1.57,3.74-2.35a31.83,31.83,0,0,1-3.35,4.58l.05.06a28.33,28.33,0,0,0,3.36-4.68l.7-.42c0,.15,0,.31,0,.46a43.51,43.51,0,0,1-4.35,9l.1.06a37.52,37.52,0,0,0,4.24-8.82c-.29,4.13-2.17,7.75-4.19,11.34a.35.35,0,0,0,.39.52c.53-.1,1-.17,1.55-.29A24.45,24.45,0,0,1,84,147.38c-3.67,1.79-8.17,1.68-11.6,3.92v0l-.87,0c1.06-.54,2-1.26,3.09-1.76,1.27-.58,2.63-1,3.94-1.46A30.26,30.26,0,0,0,84.83,145v0a32,32,0,0,1-7.67,3.52,35.64,35.64,0,0,0-6.05,2.88.1.1,0,0,0-.06.07l-.51,0c3.62-1.45,6.7-4.31,9.69-6.69,4.15-3.3,8.18-6.72,10.73-11.46a.11.11,0,0,0-.19-.11c-2.68,4.28-6.58,7.51-10.53,10.57s-7.88,6.47-12.91,7.91a.3.3,0,0,0-.19.19c-.5.08-1,.18-1.49.3,3.58-4.73,3.59-11.15,3.45-16.81h0c-.18,6-.72,11.31-3.65,16.68a.12.12,0,0,0,.06.18c-2.43.6-4.71,1.66-6.07,3.79l.12.09c3.31-3.7,9.43-3.74,14-3.77,2.43,0,4.82.15,7.25.31.67,0,1.33.06,2,0a37.77,37.77,0,0,1-11.49.13l0,.16a35.36,35.36,0,0,0,11.6-.26v0l.47,0a34.33,34.33,0,0,1-6.42,1.27c-.1,0-.11.17,0,.16a19.24,19.24,0,0,0,7-1.49,9,9,0,0,0,1.18-.22c-1,1.37-3.42,1.62-4.89,1.86-.13,0-.07.22.05.2,1.19-.17,3.22-.42,4.37-1.34-1.32,1.18-2.46,2.55-3.81,3.7-.11.09,0,.24.15.15,1.65-1.32,2.87-3.08,4.47-4.46l0,0-.56.47a2.19,2.19,0,0,0,.45-.6l.39-.13c-.84,1.19-1.71,2.43-2.64,3.6l-.11,0a.09.09,0,0,0,0,.15,19.09,19.09,0,0,1-4,3.91c-2.61,1.77-5.54,2.2-8.54,2.8h0a10.46,10.46,0,0,1-3.63-.42v0a9.78,9.78,0,0,0,3,.54c-.21.12-.14.52.13.49a34.53,34.53,0,0,0,5.52-1c4.19,1.07,8,4.78,10.62,8.08l.08-.06c-2.48-3.34-6.31-7.1-10.54-8.07a14.25,14.25,0,0,0,1.92-.73v0a42.4,42.4,0,0,1,10,2.9l.05-.12a33.4,33.4,0,0,0-10-2.86,11.19,11.19,0,0,0,1-.57c2.73.74,5.52,1,8.29,1.56a38.28,38.28,0,0,1,7.9,2.64A46.14,46.14,0,0,1,107,173.31a.28.28,0,0,0,.4-.4c-3.4-4.19-8.07-7-13-9a33.63,33.63,0,0,0-8.33-2.43c-2.47-.36-5-.47-7.46-.76.15-.1.3-.18.44-.29l.35-.29h0a47.76,47.76,0,0,1,7.59.62l0-.07a30,30,0,0,0-7.44-.72c.21-.17.43-.34.64-.51a45.66,45.66,0,0,1,7.12-.12v-.09a34.54,34.54,0,0,0-6.85-.05c.27-.24.54-.48.79-.74a27.82,27.82,0,0,1,8.36-.22l0-.1a25.25,25.25,0,0,0-8.28.22c.55-.55,1.08-1.12,1.59-1.71A30,30,0,0,1,92,157.76v0a29.7,29.7,0,0,0-8.86-1.11l.63-.72a36.79,36.79,0,0,1,10.12.53c2.71.59,5.37,1.39,8,2.24l-3.1-.12c-.3,0-.31.39-.07.49,4.41,1.82,8.64,3.29,12.19,6.43a25.62,25.62,0,0,0-3.62-.51.44.44,0,0,0-.22.81c4.44,2.53,6.36,7.08,8.07,11.66a45.79,45.79,0,0,0,3.23,7.5q-1-1-1.86-2c-1.9-3.3-3.46-6.81-5.9-9.79l0,0c2.2,2.77,3.65,6,5.34,9.07a55.9,55.9,0,0,1-4.54-5.91l0,0a42.67,42.67,0,0,0,5.18,7c.44.75.89,1.48,1.39,2.19a49,49,0,0,1-8.06-7.43l-.08.06a43.23,43.23,0,0,0,8.82,8.29l.21.25-.88-.27c-4.29-3.2-8.62-6.29-12.7-9.76l0,0a91,91,0,0,0,12.11,9.55l-.45-.11a.13.13,0,0,0-.05-.2,78.69,78.69,0,0,1-12.33-6.45l-.06.1A75.53,75.53,0,0,0,116.28,186a70.47,70.47,0,0,1-7.8-1.82c-4.48-1.56-8-4.54-11.59-7.54-.33-.28-.93.09-.64.49,1.21,1.73,2.24,3.58,3.44,5.32-1.58-1.66-2.91-3.54-4.53-5.17l-.06.06c1.6,1.66,2.9,3.56,4.51,5.2l-.58-.13c-1.29-.81-2.56-1.66-3.79-2.57v0c1.21.9,2.45,1.74,3.73,2.54-5.55-1.28-10.67-4.51-14.86-8.26a.37.37,0,0,0-.62.36c0,.33.08.69.1,1-3.71-2.9-5.18-7.76-8.16-11.3-.33-.39-.86.16-.56.55,3,3.91,4.71,9,9,11.87.31.2.6-.13.55-.42s-.07-.62-.1-.95c4.6,3.95,10.24,7.27,16.26,8.23.3,0,.69-.27.45-.58-.95-1.26-1.76-2.6-2.59-3.94a30.83,30.83,0,0,0,8.4,5.43c4.15,1.6,8.68,2.21,13.06,3" style="fill: #601524"/>
    <path d="M49.33,107.18a95.4,95.4,0,0,1,8.91,34.7.28.28,0,0,0,.56,0c0-.29,0-.58,0-.87a.07.07,0,0,0,.1,0l.09-.19c0,.12,0,.24,0,.37s.15.1.17,0c0-.26.05-.53.08-.8,2.5-4.91,4.59-9.93,5-15.5H64.1c-.41,5.42-2.47,10.24-4.84,15A75.51,75.51,0,0,0,58,117.35l-.1,0a82.26,82.26,0,0,1,1.1,23l-.23.46c-.06-12.17-3.33-23.89-8.66-34.79C46,97.49,40,87.54,30.18,84.85c-.11,0-.14.12,0,.16,9.41,3.75,15.16,13.38,19.2,22.17" style="fill: #601524"/>
    <path d="M205.1,202.37a16.43,16.43,0,0,0,1.11-6.7c.21.53.42,1.06.61,1.59a15.44,15.44,0,0,1-1.73,5.1m-1.31,4.44c-.56,1.13-1.7,2.29-3.06,2.09a3.35,3.35,0,0,0,1.9-1.18l0,0a3.31,3.31,0,0,1-1.9,1.15l0,.07a2.08,2.08,0,0,1-.26,0,3.28,3.28,0,0,1-1-.51,3,3,0,0,1,.7-1.36l0,0a3.06,3.06,0,0,0-.72,1.36,4,4,0,0,1-1.44-4A2.84,2.84,0,0,1,200,202l.26,0a5.28,5.28,0,0,0-.64.57l.05.05a5.88,5.88,0,0,1,.73-.63,4.28,4.28,0,0,1,1.93.56c-.17.1-.34.21-.51.3l.05.09c.19-.11.36-.23.55-.34l.38.2a7.63,7.63,0,0,1-.56,1.1l.09.05a3.86,3.86,0,0,0,.55-1.08,2.17,2.17,0,0,1,.21,3.37.09.09,0,0,0,.15.09,4.12,4.12,0,0,0,.63-1.93.23.23,0,0,0,.07.05,3.14,3.14,0,0,1-.17,2.41m-1-21c2.21,4.67,4.43,9.12,5.63,14.19a40.37,40.37,0,0,0-5.9-12.38q.18-.91.26-1.81m-2.52,5.45a17.09,17.09,0,0,0,.75-3.09,25,25,0,0,0-2-13.39A40.91,40.91,0,0,0,195,167.6a35.92,35.92,0,0,1,4.41,6.34c2.29,4.29,3.58,9.25,2.31,14.07a12.59,12.59,0,0,1-1.39,3.27M202,191a3.69,3.69,0,0,1-.8,2.68.11.11,0,0,0,.14.15,3.94,3.94,0,0,1-2.86,1.4,17.25,17.25,0,0,0,3.36-5.11c.06.29.11.59.16.88M191.8,204c-1.2,1.77-4,2.93-5.72,1.24h0a5.66,5.66,0,0,1,1-1.19l-.08-.1a3.44,3.44,0,0,0-1.08,1.15,3.18,3.18,0,0,1-.5-.75,3.72,3.72,0,0,1,.31-2.24l0,0a3.39,3.39,0,0,0-.36,2.08,3.38,3.38,0,0,1,.68-3.63,3.47,3.47,0,0,1,1.38-.92l-.27.22c-.08.08,0,.2.12.13s.35-.3.54-.45a3.68,3.68,0,0,1,1.38,0,5.11,5.11,0,0,0-.69.48l.07.07a6.24,6.24,0,0,1,.75-.52l.42.1-.2.21.06.06.22-.24.76.25a2.07,2.07,0,0,1-.22,1.09.11.11,0,0,0,.18.11,1.86,1.86,0,0,0,.25-1.12l.21.08a7.64,7.64,0,0,1-.08,1.55c0,.15.2.22.23.07a4.37,4.37,0,0,0,.07-1.49,4,4,0,0,1,.46.4,3.82,3.82,0,0,1,0,2.21.1.1,0,0,0,.19.05,3.76,3.76,0,0,0,.1-1.92,2.51,2.51,0,0,1-.14,3.07m5.28-8.86a4.62,4.62,0,0,1-1-.6,7.88,7.88,0,0,1-.33-2.73h-.13a6.3,6.3,0,0,0,0,2.39,5.73,5.73,0,0,1-.66-.76,3.38,3.38,0,0,1-.26-2.77c0-.09-.12-.16-.16-.07a3.57,3.57,0,0,0-.3,1.29,2.59,2.59,0,0,1,.74-2.59,4.13,4.13,0,0,1,3.44-.91,4.06,4.06,0,0,0-2.57,2.06.11.11,0,0,0,.18.11,5.29,5.29,0,0,1,2.81-2.12l.47.07a11,11,0,0,0-1.56,3.44.11.11,0,0,0,.21.06,29,29,0,0,1,1.46-3.49l.35.06a7.75,7.75,0,0,0-.75,2.18c0,.2.26.29.31.09s.21-.7.33-1.05a16.13,16.13,0,0,1-2.13,4.82c-.11.16-.23.32-.35.47l-.13.14a.1.1,0,0,0-.05-.06M194.3,172.8c-1.11,1.46-3.19,2.35-4.86,1.16-2-1.41-2.54-3.83-.63-5.6A7.91,7.91,0,0,1,191,166.9a3.29,3.29,0,0,1,2.38-.14l.46.61a5.17,5.17,0,0,1-.89,3.26l.1.06a4.78,4.78,0,0,0,.89-3.19c.23.32.45.65.68,1a6.31,6.31,0,0,1-1.58,4.57c-.13.14.07.35.22.21a6.39,6.39,0,0,0,1.76-4,4.13,4.13,0,0,1-.68,3.54M185,166.66c-2,1.84-6.2,1-6.7-2-.37-2.19,1.23-4.22,3.17-5.09,1-.44,1.8-.76,2.15-1.71,0,.08,0,.15,0,.23-.22,1.13-.48,2.26-.73,3.38,0,.09.12.13.14,0,.21-.88.42-1.77.57-2.66,0,.93-.07,1.86-.15,2.79,0,.13.19.13.2,0a39.84,39.84,0,0,0,.11-4l.18.12c-.12,1.71.41,3.38.52,5.08a.12.12,0,0,0,.24,0c0-1.7-.58-3.31-.65-5l.29.22c.86,2.48,2.93,6.46.66,8.58m-4.64-12.53q.58.58,1.18,1.14a20.57,20.57,0,0,0-2.41-1.06c.41,0,.82-.06,1.23-.08m31.38,62.22c.55,1.67,1.5,6-1.75,5.8a3.82,3.82,0,0,1-.63-.1,4.86,4.86,0,0,0,1.28-.63l0-.07a5.87,5.87,0,0,1-1.47.63,4.58,4.58,0,0,1-.93-.4.41.41,0,0,0,.1-.19l-.06,0-.14.15a3.15,3.15,0,0,1-1.69-3.62,7.88,7.88,0,0,1,2.47-3.48c.27-.24.53-.48.76-.72,0,.27,0,.54,0,.81a.24.24,0,0,0,.11.18,8,8,0,0,1,0,3c0,.11.15.1.17,0a7.39,7.39,0,0,0,0-3,.19.19,0,0,0,.21-.17c0-.1,0-.2,0-.29a19.47,19.47,0,0,1,.76,3.88c0,.15.25.16.24,0a12.12,12.12,0,0,0-.64-3.78.23.23,0,0,0,.17-.12c.15.88.39,1.73.55,2.6,0,.12.21.07.19,0-.16-.89-.44-1.75-.61-2.64a.06.06,0,0,0-.08,0c0-.08,0-.16,0-.24.35.82.68,1.64,1,2.47m-19-29.87a2.85,2.85,0,0,0,1.11-2.32,4.59,4.59,0,0,0,.39.34,2.9,2.9,0,0,1-1.5,2M186,181.82a3.38,3.38,0,0,1,1.4-2.81,5.11,5.11,0,0,0-.52,1.62l.11,0a7.07,7.07,0,0,1,.61-1.77,4,4,0,0,1,2.37-.26,5.16,5.16,0,0,0-1.33,1.54.07.07,0,0,0,.13.07,5.65,5.65,0,0,1,1.37-1.59,10.76,10.76,0,0,1,2.73.93,5.22,5.22,0,0,0-.21,2,3.66,3.66,0,0,0,.11.58,4.52,4.52,0,0,1-.44,1.71l.11.06a4.65,4.65,0,0,0,.41-1.52,4.1,4.1,0,0,0,.64,1.22,4.21,4.21,0,0,1-1.44,2.14l.08.08a4.08,4.08,0,0,0,1.39-2.18c.08.1.16.21.25.31a.11.11,0,0,0,0,.07,3,3,0,0,1-1.57,2.53.13.13,0,0,0,0,.16c-2.6.55-6.35-1.85-6.1-4.91m4.8,10.5a4.29,4.29,0,0,1-2.38,3.47,2.81,2.81,0,0,1-1.59.18,2.63,2.63,0,0,0,.69-.47l-.05-.06a3.47,3.47,0,0,1-.87.48,3.35,3.35,0,0,1-.57-.19,5.64,5.64,0,0,0,.65-1.42l-.12,0a8.69,8.69,0,0,1-.72,1.36,3.59,3.59,0,0,1-.6-.39s0,0,0,0c.13-.59.27-1.18.38-1.78l-.12,0c-.18.56-.33,1.12-.49,1.69a3.1,3.1,0,0,1-1-1.76,4.1,4.1,0,0,1,1.13-3.58,2.83,2.83,0,0,1,1.55-.76,3.53,3.53,0,0,0-.6.74l.07,0a3.75,3.75,0,0,1,.64-.79,5.51,5.51,0,0,1,.91,0c-.23.44-.43.9-.64,1.34-.05.11.11.21.17.1.23-.46.43-.95.62-1.43l.46,0a4.52,4.52,0,0,1,.56.21h0a5.92,5.92,0,0,1,.25,2.91c0,.1.15.12.17,0a4.76,4.76,0,0,0-.28-2.87,3.8,3.8,0,0,1,.56.34,5.17,5.17,0,0,1,.39,3.8.13.13,0,0,0,.25.07,4.92,4.92,0,0,0-.12-3.39,2.81,2.81,0,0,1,.65,2.24m-21-30.53.72.34a19,19,0,0,0-3.17-.5c-.2,0-.19.25,0,.31a38.08,38.08,0,0,1,8.65,4.85l.35.28c-.22-.12-.44-.25-.67-.36a29.14,29.14,0,0,0-3.7-1.47c-.16-.05-.23.16-.11.25,3.52,2.52,8.36,5.17,10.12,9.37.91,2.15.46.8-.29-.09s-1.49-1.73-2.31-2.53a38.76,38.76,0,0,0-4.07-3.53,42.43,42.43,0,0,0-12-6,41.7,41.7,0,0,1-7.47-2.81c-1.51-.85-3.56-2.05-4.15-3.83a20.42,20.42,0,0,0,2.84.81c2.19,1.22,4.46,2.27,6.71,3.36l0-.05c-2-1.05-4.09-2.1-6.12-3.18.61.11,1.23.2,1.86.25l0,0a25.18,25.18,0,0,0,4.28,2.33v0a25,25,0,0,1-4.18-2.34,22.87,22.87,0,0,0,3,.07c.41,0,.82-.05,1.23-.09,2.28,2.41,5.59,3.21,8.54,4.57m-.53,7.4a29.93,29.93,0,0,1,6,9.91,28.37,28.37,0,0,1,1.7,11.59,25.08,25.08,0,0,1-1.08,5.84c-.13.4-.28.77-.44,1.14a18.84,18.84,0,0,0,.29-10l-.08,0a19.67,19.67,0,0,1-.93,11.43c-.46.81-1,1.59-1.52,2.38a7.25,7.25,0,0,0-.21-.95,19.79,19.79,0,0,0,1.73-11h-.09a22.8,22.8,0,0,1-1.58,10.35,37.7,37.7,0,0,0,.07-8.74c0-.09-.15-.09-.14,0a44,44,0,0,1-.14,8.89,25.84,25.84,0,0,0-1.75-3.52c-.47-.86-.89-1.73-1.31-2.61a19.58,19.58,0,0,1-.65-3.06h-.11a18.08,18.08,0,0,0,.46,2.44c-.53-1.13-1.05-2.27-1.63-3.38-.19-.38-.74-.11-.65.28a14.43,14.43,0,0,1,.3,2.47c-2.54-2.81-5.23-5.4-7.88-8.09a.11.11,0,0,0-.12,0c0-.08-.12-.05-.13,0a8.72,8.72,0,0,0,.23,2.66c-2.15-1.88-4.61-3.86-5.83-6.44-1.46-3.08-1.17-6.65-1.29-10a48.93,48.93,0,0,0-1.13-9.79,71.69,71.69,0,0,1,2.13,10.73c0,.09.16.07.16,0a48.43,48.43,0,0,0-2.4-11.62,52.13,52.13,0,0,1,4.48,9.29l.09,0a45.11,45.11,0,0,0-4.78-9.78c-.11-.28-.21-.56-.33-.83h0a18.6,18.6,0,0,0-1.58-3.45c-.11-.17-.42-.06-.34.14h0c-.12-.22-.25-.44-.38-.65l0,0c1.26,3.85,2.21,7.7,1.78,11.78a28.68,28.68,0,0,1-4,11.82c-.57,1-1.19,1.88-1.82,2.8-.83,1.21-.49-.44-.56-1.11a23.94,23.94,0,0,0-1.07-5.19,75.43,75.43,0,0,0-5.22-11,.24.24,0,0,0-.44.12c0,.46,0,.92,0,1.37-1.81-4.75-3.68-9.56-3.62-14.71a14,14,0,0,0,1.71-.54,47.34,47.34,0,0,0,.56,6.61l.12,0c-.27-2.2-.54-4.4-.59-6.62a8.23,8.23,0,0,0,3.74-2.73c.88,2.07,2.15,4,2.9,6.12a45.67,45.67,0,0,1,1.75,6.72,71.14,71.14,0,0,1,1,14.47h.06a58.31,58.31,0,0,0-.31-15.41c-.68-4-1.92-9.66-5-12.62a6,6,0,0,0,.49-1.34c.1.16.2.32.31.48-.34-.15-.76.37-.47.75s.58.74.88,1.09l0,0c.12.1.22.21.32.31q.52.62,1.07,1.21a16.51,16.51,0,0,1,2.21,4.81c0,.12.22.07.19-.05a17.76,17.76,0,0,0-1.78-4.11l.64.64a36.66,36.66,0,0,1,3.75,15,.07.07,0,0,0,.14,0,32.85,32.85,0,0,0-3.64-14.71,24.19,24.19,0,0,0,7.9,5.16c.34,1.89,2.25,3.35,3.82,4.25.28.16.56.3.84.44l0,0a56,56,0,0,1,9.2,9.13c.07.09.21,0,.15-.09a49.59,49.59,0,0,0-9.2-9,31.14,31.14,0,0,0,3.83,1.56c3.34,2.15,6.66,4,9.38,7m-36.2-13.55c.23,4.53-.85,10.52-4,14.33a9.85,9.85,0,0,0,.31-1.07,7.83,7.83,0,0,0,1.05-5.1l-.09,0a7.52,7.52,0,0,1-.86,4.55c.13-.63.22-1.24.33-1.76l-.05,0c-.21.79-.38,1.62-.62,2.41-.19.32-.38.63-.59.94l.11.07c.1-.14.19-.28.28-.42a6.21,6.21,0,0,1-.52,1.08,10.25,10.25,0,0,1-1.62,1.36,4.5,4.5,0,0,0,.4-1.66,9.06,9.06,0,0,0-.89-6.45l-.1,0a12.8,12.8,0,0,1,.91,5.06,21.88,21.88,0,0,0-2-5.06c-.89-1.93-2.15-4.1-1.9-6.3s1-5,2.88-6.56l1.13.1a9.14,9.14,0,0,0-.29,1.88h.1a13,13,0,0,1,.29-1.88l.45,0c-.16.81-.31,1.62-.42,2.44l.14,0c.13-.82.24-1.64.35-2.46l.91,0a18.75,18.75,0,0,0-.23,2.43.07.07,0,0,0,.14,0,21.6,21.6,0,0,1,.2-2.42l.88,0c.11,1.16.11,2.32.13,3.48h.1a28.72,28.72,0,0,0-.13-3.48l.43,0,.28,0c.2,1.81.3,3.62.32,5.44,0,.09.14.09.14,0a41,41,0,0,0-.37-5.45c.37,0,.75-.08,1.13-.14-.14,2.55,0,5.09,0,7.64h.13c.17-2.55-.06-5.11,0-7.66l.69-.12a24.55,24.55,0,0,0,.46,4.71s0,0,0,0m18.07-11q.53.42,1.08.8l-2.32,0q-.5-.39-1-.81,1.1,0,2.2,0m-2.44-.19q-.38-.36-.74-.73l1.87-.15,1,.8-2.1.08M173,151.53a24,24,0,0,1-15.8-.61c-4.52-1.8-8.12-5.15-12.42-7.37a6.81,6.81,0,0,0,2.23-.83q.31.41.64.78l-.92.11c-.12,0-.09.22,0,.21l1.12-.07q.35.38.73.73l-.53,0a.1.1,0,0,0,0,.19h.77q.47.42,1,.82l-1.15,0a.09.09,0,0,0,0,.17l1.41,0c1.16.89,2.41,1.68,3.65,2.46a.12.12,0,0,0,.07.22H154l.31.19,0,0-.25-.16a42.08,42.08,0,0,0,7.74-1.27v0c-2.7.33-5.35.94-8.08,1.05h0c-.57-.36-1.14-.73-1.71-1.1,3.81-.12,7.74-.58,11-2.68l-.06-.1c-3.33,2-7.2,2.35-11,2.57a.1.1,0,0,0-.1.12c-.6-.4-1.18-.81-1.75-1.24.77,0,1.53,0,2.3-.09.5.34,1,.66,1.55,1a.1.1,0,0,0,.1-.17c-.45-.25-.89-.52-1.31-.81.77-.06,1.54-.13,2.31-.23v-.1c-.85.09-1.7.13-2.55.16-.38-.26-.75-.53-1.11-.81,1.57-.08,3.14-.24,4.69-.43v-.1c-1.68.13-3.36.2-5,.26l-1-.81c2-.19,4-.45,5.94-.82l0-.11c-2.1.19-4.21.38-6.31.61l-.59-.49a15.3,15.3,0,0,1,5.13-1.06v-.08a15.39,15.39,0,0,0-5.28,1l-.69-.58-.09.09.63.55-.17.06c-.1,0-.06.21,0,.17l.27-.1.52.45-1.73.21q-.35-.39-.67-.82a26.37,26.37,0,0,0,2.68-1.92,25.54,25.54,0,0,1,4.64-1.11v0a24.85,24.85,0,0,0-4.13.78,14.58,14.58,0,0,1,1.61-1.05c4.21-2.32,8.52-1.82,13.13-2.12a.38.38,0,0,0,.19-.71,7.5,7.5,0,0,0-2.85-1c.65-.27,1.31-.53,2-.77,3.86-.6,7.63-.31,11.53-.38a44.88,44.88,0,0,0,9.59-1.48A58.25,58.25,0,0,1,177.8,136c-3.14,1.21-4.45,3.82-6.19,6.5-2.41,3.73-5.28,5.49-9.39,7a.11.11,0,0,0,.06.21c4.13-.64,7.1-2.17,9.51-5.65,1.29-1.87,2.26-4.27,4-5.74,1.5-1.24,3.37-1.72,5.16-2.39,5.08-1.9,11.42-5,9.52-11.23a6.91,6.91,0,0,1,2,2.25c1.19,2.35.3,4.87-1,7-2.38,4-6,7.13-8.21,11.25-3.08,2.64-6.41,5.13-10.32,6.35m-7.25-21.15.85-.52a25.92,25.92,0,0,0,5.6-1.5l0-.06a41.32,41.32,0,0,1-5.14,1.27c2.2-1.46,4.17-3.33,4.2-6.1a.42.42,0,0,0-.62-.36,13.94,13.94,0,0,1-7,2.51,30.71,30.71,0,0,0,4.4-2.1l-.06-.1a33,33,0,0,1-5.42,2.26,26.74,26.74,0,0,1-3.51-.16,18.93,18.93,0,0,0,7.5-2.48v0a26.55,26.55,0,0,1-8.62,2.36c-.9-.12-1.8-.26-2.72-.41l-.18,0a16.5,16.5,0,0,0,5.69-2.45l-.07-.12a19.47,19.47,0,0,1-6.32,2.41s0,0-.05,0c-1.2-.18-2.41-.34-3.61-.4a11.43,11.43,0,0,0,2-1.3,37.09,37.09,0,0,0,4.65-3.29c.47-.29.94-.56,1.42-.81a18,18,0,0,1,8.82-2.09,42.52,42.52,0,0,1,18,4.85l1.17.58a.28.28,0,0,0,.2.1,24.12,24.12,0,0,1,3.36,2c.53,3.88-1.35,6.28-4.08,8-3.91.36-7.73,1.18-11.68,1.08-2.09-.05-4.27-.16-6.41,0a56,56,0,0,1,14.2-2.21.43.43,0,0,0,.21-.79c-4.58-3.24-11.34-.52-16.7-.1m-53.85,12a74,74,0,0,1-10.08,5.39c-.65.18-1.29.39-1.92.64a.12.12,0,0,0-.05.19q-1,.39-2,.76c-2.22.8-4.51,1.45-6.68,2.37-.54.23-1.12.45-1.69.67A79.51,79.51,0,0,0,94.65,145l-.06,0c-1,1.6-2.17,3.13-3.31,4.66a22.75,22.75,0,0,1,2-3.06l-.07-.07a19.24,19.24,0,0,0-2.13,3.08c-.05.09.08.16.13.09l-2.18,2.89L88,153c1.78-1.81,3-4.09,4.42-6.17a76.23,76.23,0,0,0,4.73-6.35c1-1.49,3.85-4.07,2.81-6.06a1.48,1.48,0,0,0-.72-.57c-1-.33-.29,0,.48-.4a10.8,10.8,0,0,0,3.89-3.22,14.18,14.18,0,0,0,1.85-3.19c.46-.93.91-1.86,1.3-2.82l-.07,0c-.25.61-.53,1.2-.82,1.79a13.71,13.71,0,0,0,.64-2.86q.46.65.95,1.28a23.75,23.75,0,0,1-2.31,5.07l.06,0a20.78,20.78,0,0,0,2.27-5.06l.09.12a12.91,12.91,0,0,1-1.6,4.39,7.32,7.32,0,0,0-1.23,2.39c-.22,1.48.51,2.22,1.83,2.78,1.13.48,0,0-.71.12a5,5,0,0,0-2.12.88c-1.37,1-2.11,2.83-2.83,4.26a.18.18,0,0,0,.06.24,6.32,6.32,0,0,0,2,.59,7.29,7.29,0,0,0,.8.07,13.85,13.85,0,0,0-5,1.89,15,15,0,0,0-1.56,1.39,8.07,8.07,0,0,0,.46-1l0,0a8.58,8.58,0,0,1-.71,1.29,28.71,28.71,0,0,0-2,2.32c-.2.26-.41.51-.61.76,1.15-1.77,2.29-3.54,3.56-5.24l0,0a60.64,60.64,0,0,0-4.28,6,.1.1,0,0,0,0,.14,39.1,39.1,0,0,0-2.5,3.19c-.19.28.21.51.43.33,2.35-1.85,3.43-4.88,5.46-7,2.33-2.47,5-3.12,8.14-4.11.16-.05.14-.32,0-.3a7.1,7.1,0,0,1-3.17-.23c-1.07-.38.22-2.06.54-2.58a5,5,0,0,1,5.15-2.59.15.15,0,0,0,.11-.26c-.57-.58-1.46-.85-2-1.46-.93-1.12.22-2.49.78-3.49A11.17,11.17,0,0,0,108,125a30.91,30.91,0,0,0,2.86,3.13c4.15,3.91,9,6.33,14.38,6.07-4.72,2.2-9.09,5.41-13.39,8.13m-3.18,4-1.11.18,1.23-.24-.13.07m-.83.46c-.74,0-1.48.11-2.21.21l.56-.24h.07v0c.68-.11,1.37-.2,2.06-.29l-.49.29m46.68-63.25c-3.5,1.76-7.57,2.07-11,3.95a11.48,11.48,0,0,0-3.86,3.2c-1.11,1.51-1.56,4-3.48,4.78-.15-.45-.3-.91-.47-1.36.48-3.32,1.18-6.66,3.44-9.27l-.11-.11a14.62,14.62,0,0,0-3.53,8.85q-.42-1.08-.91-2.16c-.61-3.09.57-5.6,3.5-7.59a63,63,0,0,1,9.16-4.6c3.23-1.5,6.06-3.4,7.65-6.73A32.45,32.45,0,0,0,157.48,62c1.15,6.15-.36,13.33-5,17.71l.08.08c4.87-4.38,6.37-11.93,4.92-18.16l0-.24c2.79,3.68,1.11,10,.23,14a.09.09,0,0,0,.17.05c1.13-4.07,2.63-10.61-.38-14.24,0-.17,0-.34.05-.51a33.5,33.5,0,0,1,1.76,3.11c.95,3.27.23,7.29-.08,10.41,0,.12.2.15.22,0,.41-2.74,1-6.3.36-9.35a16.38,16.38,0,0,1,1.5,7.33c-.22,4.66-2.53,9.14-6.82,11.3M133.5,111.77a13.7,13.7,0,0,1-4.85,2.4,7.38,7.38,0,0,0,2.92-4.14c1.88-6.48-5.1-11.64-6.86-17.31-1-3.37,0-7-1.3-10.36a16.37,16.37,0,0,0-4.8-6.38c8.59,4.21,15.12,13,17.21,22.25,1,4.36,1.59,10.37-2.32,13.52m38.66-47.23c2.84-.06,6.51-.22,9,1.49a18.9,18.9,0,0,0-3.38.41c-.3.07-.33.59,0,.65a14,14,0,0,1,10.45,7.07,25.76,25.76,0,0,0-2.54-.84.34.34,0,0,0-.33.57,16.91,16.91,0,0,1,3,16.79c-2.39-8.49-12.95-13.79-21.12-14.37,0,0,0,0-.06,0a7.85,7.85,0,0,0-4.89-3.83,16.37,16.37,0,0,0-.08-2.75c1.93.19,3.89-.14,5.83.05.1,0,.12-.15,0-.17a35.65,35.65,0,0,0-5.86,0,16.32,16.32,0,0,0-.63-3c3.63-.53,6.89-2.07,10.64-2.15m-6.09-.64,1-.49,1.75.15c-.24.15-.47.3-.7.47a.11.11,0,0,0,0,.12c-1.12.26-2.23.59-3.33.94a10.47,10.47,0,0,1,1.34-1.19m.78-.51-.2.1.16-.1h0m5-.84.43.12-1,.09.6-.21m-1.83.32h-.11a.07.07,0,0,0-.07.07c-.25.13-.5.27-.74.41-.55-.06-1.1-.11-1.66-.14q1.28-.59,2.62-1.06c.37.06.73.13,1.09.22-.39.15-.77.31-1.14.49m.44.83c-.67.09-1.32.21-2,.35q.4-.23.82-.45l1.15.1m3.13-3.37a30,30,0,0,1,12-2.46c4.38.14,9.16.76,13,3a32,32,0,0,1,6.64,4.74,31.44,31.44,0,0,0-4.76-2.77l0,0a31.16,31.16,0,0,1,5.36,3.34q.35.4.66.82a12.85,12.85,0,0,0-1.64-.8c-.3-.11-.45.29-.28.48A14.83,14.83,0,0,1,208.25,75a6.45,6.45,0,0,0-1-.81c-.32-.21-.68.2-.51.5A9,9,0,0,1,208,79.56c-3.55-3-6.81-6.56-10.82-9a28.27,28.27,0,0,0-14.75-4.51,6,6,0,0,0-1.78-1.39c4.78.24,9,1.86,13.47,3.34v0c-4.39-1.56-8.9-3.68-13.66-3.44v0c-2.2-1.07-5-1.11-7.33-1.08-.67,0-1.32.06-2,.13l-1.51-.18c.35-.17.71-.33,1.07-.47.69-.06,1.39-.1,2.08-.13l1,.31,0-.07-.81-.24A92.33,92.33,0,0,1,189,63.94c.1,0,.14-.13,0-.15a67.72,67.72,0,0,0-16.5-1.12l-.55-.15a28.73,28.73,0,0,1,12.34-.81v-.09c-4-.64-9-.79-13.05.74q-.55-.12-1.11-.21A37.91,37.91,0,0,1,183,60.19h0a38.09,38.09,0,0,0-13,1.94l-.39-.06v0l.3.05q-1.36.47-2.67,1.07h-.15a39.65,39.65,0,0,1,6.49-2.87M170,58.89a42.48,42.48,0,0,0,5-4.51c1.36-1,2.71-2,4.05-3l0-.06c-1.15.85-2.33,1.67-3.49,2.5.5-.55,1-1.12,1.44-1.7,4-5.08,4.14-12.08,8.57-16.84.33.61.67,1.3,1.08,2a25.08,25.08,0,0,0-3.23,5.27c0,.09.09.17.13.08a32.13,32.13,0,0,1,3.13-5.3,5.73,5.73,0,0,0,1.82,1.93c0,.14,0,.28.06.43s.16.07.15,0l0-.31a3.07,3.07,0,0,0,.92.3,15.74,15.74,0,0,0-2.33,2.32l.08.08a23.61,23.61,0,0,1,2.35-2.35l0,0,.26,0h0a.28.28,0,0,0,.26.1,18.9,18.9,0,0,1,8.65,1A26.56,26.56,0,0,0,204.94,42a19.72,19.72,0,0,0,11.87-3.15c6.08-3.92,9.89-10.29,11.75-17.16-.48,7-4.35,12.54-8.46,17.92-.22.29.09.63.38.66a4.3,4.3,0,0,1,1.42.39c-3,.63-6.25,1.78-8.25,4.09-2.58,3-3.48,6.76-7.42,8.45s-9.56,1.73-12.62-1.75a12.74,12.74,0,0,1-2.47-4.72l0,0a7.9,7.9,0,0,0,9.77,5.41l0-.1c-4.37.93-7.43-1.15-9.29-4.83a8.7,8.7,0,0,0,6.22,2.85V50c-2.79-.06-5.18-1.78-6.9-3.91-.35-1.23-.6-2.48-.85-3.71a.32.32,0,0,0-.62.08c0,.7.08,1.41.16,2.12-1.73,1.29-3.32,2.76-5.06,4-.1.07,0,.24.1.17,1.78-1.2,3.32-2.69,5-4,0,.41.11.82.18,1.23-3.13,3-7.24,4.7-10.59,7.42-3,2.45-7.13,3.85-9.52,7a.18.18,0,0,0,0,.16,18,18,0,0,0-2.21,1.15A8,8,0,0,0,170,58.89m42.17-35.23c4-.08,7.14,1.4,7.26,5.76a30.18,30.18,0,0,1-.45,5.17c-.08.38-.17.76-.26,1.15a.13.13,0,0,0,.08.16c0,.2-.06.4-.08.6-.56.46-1.14.89-1.75,1.29A12.05,12.05,0,0,0,218,35.57l-.1,0a12.65,12.65,0,0,1-1.18,2.33l0,0a21.8,21.8,0,0,1-2.08,1.21,21.34,21.34,0,0,1-4,1.53A13.86,13.86,0,0,0,213.64,36l-.09,0a34.46,34.46,0,0,1-3.35,4.81q-.69.17-1.38.29c1.58-1.11,2.28-3,3.49-4.45l-.09-.09c-1.34,1.45-2.11,3.29-3.7,4.53a.08.08,0,0,0,0,.06c-.42.06-.84.12-1.26.15a23.07,23.07,0,0,0,2.44-3.18l-.1-.1a40.5,40.5,0,0,1-2.51,3.22l.06.06c-.51,0-1,.06-1.53.05a13.09,13.09,0,0,0,2.31-3.7l-.1-.06a16.24,16.24,0,0,1-2.51,3.75,18.7,18.7,0,0,1-4.86-.77,34,34,0,0,0-6.83-1.73c2.57-7.49,10.26-15,18.55-15.15m-7.49-.29a3.31,3.31,0,0,0,1.28.79c.11,0,.15-.12,0-.16a2.77,2.77,0,0,1-.38-.19c.27-.29.53-.59.78-.9a4.62,4.62,0,0,0,.44.32l0-.06a4.44,4.44,0,0,1-.42-.32l.71-.86c.13.17.26.35.39.52l.08-.06c-.14-.18-.26-.37-.39-.56l.46-.55c.1.23.19.47.3.7l.05,0c-.1-.24-.19-.49-.29-.74a9,9,0,0,1,2.35-2l0-.06a8.81,8.81,0,0,0-2.38,1.89c-.21-.53-.43-1.06-.63-1.6a8.3,8.3,0,0,1,2-1.67l-.07-.12A8.64,8.64,0,0,0,207,19.24l-.41-1.12a14.42,14.42,0,0,1,2.13-2.5l-.08-.1a12.22,12.22,0,0,0-2.14,2.35l-.26-.7c0-.09-.17-.05-.14,0,.1.26.2.52.3.79-.24.3-.48.6-.74.88.09-.63.17-1.21.24-1.7.2-1.25,0-3.9-1.13-4.58,1.86-.92,3.93-.68,6-.63a2.65,2.65,0,0,0-2,1.79c-.55,2.22,3.27,4.69,4.58,5.91a.2.2,0,0,0,.28,0c.29.67.71,1.27,1,2,.18.5.31,1,.5,1.53A10.66,10.66,0,0,0,212.8,23c-.51,0-1,0-1.51.1a35.1,35.1,0,0,0,3.23-1.41l0-.08c-1.32.54-2.65,1.05-4,1.56a.1.1,0,0,0-.06.07,19.84,19.84,0,0,0-6.78,2.43,9.62,9.62,0,0,0,1-2.23m1.6-2.92c.22-.29.45-.58.69-.85.21.53.44,1,.67,1.56l-.5.56q-.44-.63-.86-1.27m-.89,1.3c.26-.4.52-.8.8-1.18a15,15,0,0,0,.85,1.26l-.74.9a9.45,9.45,0,0,1-.91-1m-.46.75.41-.67a7.49,7.49,0,0,0,.91,1l-.76.93a5.91,5.91,0,0,1-.73-.59c.06-.2.12-.41.18-.62M205.6,19a.1.1,0,0,0,.16,0,8.19,8.19,0,0,0,.69-.78c.14.36.27.73.41,1.09a11,11,0,0,0-.77.84l-.06-.09-.11.07.08.13a13,13,0,0,0-.83,1.17c.18-.85.31-1.7.43-2.48m13.23-5c1.56,3.18,1.17,6.77,1.17,10.19,0,1.27,0,2.51-.12,3.75a8,8,0,0,0-.2-.85,5.44,5.44,0,0,0-1.82-2.75,30.39,30.39,0,0,0,.37-3.79h-.12c0,1.24-.26,2.46-.4,3.69a5.74,5.74,0,0,0-.72-.46,8.42,8.42,0,0,0,0-3.69l-.09,0a10.45,10.45,0,0,1-.14,3.57,6.83,6.83,0,0,0-1.19-.45,4,4,0,0,0-2-3.92c-.93-.92-6.48-5.14-3.77-6.51,2.1-1.07,7.79-1.3,9,1.19M128.62,66l-.6,0a.1.1,0,0,0-.1.09l-.48-.06a.36.36,0,0,0,.21-.35,3.1,3.1,0,0,0,.68,0l.3.31m37.57-10.63a23.08,23.08,0,0,0,.6-4.47A23.54,23.54,0,0,1,168,53.1a19.93,19.93,0,0,1-.93,4q-.39-.87-.83-1.71m-1.11-1.86a23,23,0,0,0,.41-4.65q.55.8,1.06,1.63a24.42,24.42,0,0,1-.59,4.45c-.27-.49-.57-1-.88-1.44m-3.34,8c-.08-.54-.19-1.09-.33-1.66a16.48,16.48,0,0,0,3-7l.38.57a30.5,30.5,0,0,1-3,8.13m3-13.73.51.72a24,24,0,0,1-.44,4.57l-.39-.54a25,25,0,0,0,.32-4.75m-.69-5.86a30.74,30.74,0,0,1,2,2.85,22,22,0,0,1,.53,5.49c-.34-.54-.7-1.08-1.07-1.61a22.12,22.12,0,0,0-.5-4.25l-.08,0a23.13,23.13,0,0,1,.36,3.92l-.51-.7a32.4,32.4,0,0,0-.69-5.72m21.39-7.12v0Zm16,66.91a19.17,19.17,0,0,1-1.44-1.48c-.38-.48-1.76-2.59,0-2.89a2.18,2.18,0,0,1,1.23.07c3.43,1.24,3.18,4.19,2.67,7.13a10.64,10.64,0,0,0-2.43-2.83m3.67-6.05c-2.16-.47-3-3.82-2.27-5.7l.06,0c1.18-1.73,2.62-1.1,3.79.16a6.64,6.64,0,0,1,1.78,2.64,6.82,6.82,0,0,1-.52,4c-.48-1.06-1.85-1-2.84-1.18m-.64,11.19c1.38-.85,3.71-1.48,5-.56.85.59.71,1.48,1.11,2.28s1.71,2.39,1,3.37c-2.33,3.08-5.89-2.19-8-3.36q.47-.86.93-1.73m10.54-9.62a3.83,3.83,0,0,1-3.16,3.38c-1.21.27-2.42.12-3.62.31l-.12,0a19.86,19.86,0,0,0,2.74-2.45c.44-.44.86-.91,1.33-1.32s3-2.12,2.83.12M211.8,102a4.18,4.18,0,0,1-2.82-.76c1.79,0,3.64.17,5.1-1.09a5.28,5.28,0,0,0,.65-.68A4.21,4.21,0,0,1,211.8,102m-4.39,66.25c-.06,4-8.91-1.41-12.22-3.43,1.38.16,2.8.19,4.07.32,1.72.18,8.2.33,8.16,3.11m2,39.83c.15,1.41.15,2.81.19,4.22-.74,1.59-2.54,2.51-3.29,4.18a4.71,4.71,0,0,0-.36,3.36,4.24,4.24,0,0,0,5.16,2.69c4-1.21,1.59-6.58-.21-9.49.45-4.5-.5-9.61-1.65-13.85-1.3-4.75-3.15-9.78-6.37-13.59l0,0a20.18,20.18,0,0,0-2-10.46A41.06,41.06,0,0,0,193,164.37l.56.16a.42.42,0,0,0,.1.29c1.54,1.87,13.51,9.13,14.59,4.4,1.43-6.25-11.81-4.73-15.87-5.47l-.76-.75a62.47,62.47,0,0,0-10.85-8.88,20.86,20.86,0,0,1,8.44,1.44.33.33,0,0,0,.42-.32c-.06-2.38-2.9-3.93-5.13-4.41,3.46-2,7-4,10.58-5.79,3.91-1.92,8.19-3.81,12.63-3.68a.41.41,0,0,0,.11-.8,21.15,21.15,0,0,0-14.74,1.67c-1.31.63-2.59,1.3-3.84,2a6.75,6.75,0,0,0-1.42.83,16.36,16.36,0,0,1,.94-1.68,21.86,21.86,0,0,1,3.93-4.74,26.89,26.89,0,0,1,2.41-1.53c.33-.15.1-.71-.25-.59-3.93,1.37-7.11,4.62-10.2,7.4,3.11-3.59,6.87-6.92,8.66-11.36,2-5-.93-8-4.86-10.34,4.44-.86,8.07-3.8,10.92-7.32a8.05,8.05,0,0,1,3.21-.7c1.16.07.75.88.48,1.56a2.41,2.41,0,0,0-.22,1.24,8.44,8.44,0,0,0,.54,1.36c.29.93-.85,1.36-1.64,1.3-1.6-.13-2.36-1.65-2.86-3,0-.12-.24-.08-.2.06.43,1.41,1.25,3.59,3.05,3.58,1.5,0,2.88-.79,2.09-2.37a1.92,1.92,0,0,1-.18-1.93,5.14,5.14,0,0,0,.42-1,1,1,0,0,0-.58-1.3,3.45,3.45,0,0,0-2.15-.07,4.8,4.8,0,0,1,2.57-.76c1.63.06,1.14,1.65,1.2,2.66.07,1.16,1.14,2.51,0,3.52a6.16,6.16,0,0,1-2.48,1.16.12.12,0,0,0,0,.23,3.49,3.49,0,0,0,3.3-1.65,2.58,2.58,0,0,0,.08-1.94,10.43,10.43,0,0,1-.35-2.82c-.08-3-4-1.48-5.47,0l-.22.1a39.63,39.63,0,0,0,2.45-3.62q.39-.64.75-1.3c1.9,1.38,3.87,4.33,6.41,4.32,1.5,0,3.45-1.07,2.83-2.89a19.62,19.62,0,0,1-1.12-2.35,12.78,12.78,0,0,0-.36-1.7,2.34,2.34,0,0,0-1.83-1.38A5.64,5.64,0,0,0,205,106c.77-1.51,1.52-3,2.28-4.57l.24-.13a.3.3,0,0,0,.14.05c1.18.13,2,1.16,3.17,1.27a3.15,3.15,0,0,0,2.35-.82A6.7,6.7,0,0,0,215,99.14a2.75,2.75,0,0,0,.52-2.62c-.67-1.47-2.31-.92-3.34-.18a16.85,16.85,0,0,0-2.08,2c-.8.82-1.65,1.57-2.47,2.36a69,69,0,0,1,4.49-7.91h.06c1-.79,2.73-2.26,4.15-1.72.55.82,1.3,1.39,2.25.88a3.63,3.63,0,0,0,1.6-2.44,2.64,2.64,0,0,0,.25-.56A2.1,2.1,0,0,0,219,86.42l-.06.11a1.91,1.91,0,0,1,.79,2.55c-.45.69-1.46,1.81-2.25.9-.57-.65-1.69-1.81-.77-2.6a8,8,0,0,1,1.74-.81c.2-.1.09-.38-.11-.4a2.92,2.92,0,0,0-1.51.38c.17-.89.1-1.89.86-2.54a6.41,6.41,0,0,1,3.09-1.06v-.07a.88.88,0,0,0,.34.09v0c-1-.09-1.19-1.49-1.4-2.24a.1.1,0,0,0-.18,0,2.26,2.26,0,0,0,.56,1.51,2.12,2.12,0,0,0,.66.64,4.84,4.84,0,0,0-3.36.84A4.82,4.82,0,0,0,216.29,87a1.28,1.28,0,0,0-.39.77,3.65,3.65,0,0,0,.65,1.9,2.2,2.2,0,0,0,1.19,1.23,2,2,0,0,0,1.94-.71,3.53,3.53,0,0,1-.78,1.13c-1.63,1.48-2.93-1.26-3.32-2.52-.06-.21-.39-.12-.32.08a10.51,10.51,0,0,0,.87,2A4.29,4.29,0,0,0,212.66,92c.32-.45.65-.89,1-1.32l0,0c-4.54,5.25-7.12,11.85-10.64,17.76-.73,1.23-1.49,2.46-2.32,3.64,2.21-3.58,3.93-7.53,5.88-11.21A55.41,55.41,0,0,1,215.61,88l-.08-.08a33,33,0,0,0-7,8.43,5.6,5.6,0,0,0-1-5.77c-1.34-1.56-3.43-3.1-4.62-.69l0,0c-1.06,1.3-.51,4,.44,5.26s3,1.47,4.45,2.16l.1,0-.12.4q-.84,1.45-1.6,2.91l-1.61,3.07c.84-2.94-.33-7.09-3.9-7-1.63,0-2.77,1.42-1.86,3,1.25,2.2,3.94,2.9,5.12,5.14l0,.13q-1.09,2.06-2.21,4.1c.69-2.69.42-5.49-2.61-6.38a7.14,7.14,0,0,0-6.34,1.12c-1.52,1.15-2.16,2.92-.91,4.48l.13-.07c-1.59-4.54,5.55-6.19,8.36-4.05,2.54,1.94.45,5.38-.32,8v0a9.74,9.74,0,0,0,.16-2.3c0-1.47,0-2.93-.81-4.21a3.4,3.4,0,0,0-3.15-1.07c-1.71.26-2,1.74-3.21,2.74-.14.12,0,.3.16.28a2.06,2.06,0,0,0,1.6-1,2.36,2.36,0,0,1,2.81-1.16,2.11,2.11,0,0,1,1.79,1.5,11,11,0,0,1,.09,6.21c-.28.48-.55,1-.83,1.45a.15.15,0,0,0,0,.21,24.4,24.4,0,0,1-2.33,2.41,20.29,20.29,0,0,1-8.84,4.5l-.37-.2c-5.94-3.12-12.83-5.54-19.61-5.53a20,20,0,0,0-7.2,1.25c.68-.64,1.37-1.28,2.06-2,2.26-2.18,4.56-2.24,7.52-2.49l.89-.08A15.53,15.53,0,0,0,175,114l0-.11a21.54,21.54,0,0,1-3.82-1.3,7.42,7.42,0,0,0,1.51-.36,15.26,15.26,0,0,0,3,.57v-.07c-.92-.18-1.82-.41-2.72-.64a3.6,3.6,0,0,0,1.23-.87l0,0,1.45.32,0-.1-1.4-.34a.45.45,0,0,0-.64-.54c-3.82,1.79-8.52.16-11.79,3.31-1.8,1.74-3.46,3.63-5.4,5.22-1.21.71-2.38,1.49-3.52,2.3a15.12,15.12,0,0,0-3.58,2.9.27.27,0,0,0,0,.17,14.35,14.35,0,0,0-5.64,1,6.78,6.78,0,0,0,.21-.93,13.23,13.23,0,0,0,0-3.36.39.39,0,0,0,.51-.2c2.68-6.14,10.42-5.56,15.42-9,4.79-3.26,7.92-8.18,11.74-12.43,1.05,3.25-1.56,7.94-4.33,9.41a.42.42,0,0,0,.1.76,19,19,0,0,0,6.52.46c.09,0,.06-.14,0-.15a34.05,34.05,0,0,1-5.29-.88,7.82,7.82,0,0,0,.92-.74c3,.43,5.92,1.53,9,2v0c-3-.51-5.83-1.74-8.86-2.08a11,11,0,0,0,3.07-5.93c7-6.68,17.63-7.13,27-7.58-3.6,1.79-5.93,5.06-8.83,8a16.24,16.24,0,0,1-8.64,5,22.48,22.48,0,0,1-4.35.3,18.51,18.51,0,0,0,8-3.21l0-.07a19.53,19.53,0,0,1-8.86,3.27c-1.72,0-3.44-.16-5.19-.09a.19.19,0,0,0,0,.37,24,24,0,0,0,6.64.72c5.23.93,10.58,1.69,15.38,4-7.59,1.45-15.34,4.88-22.5.23-.12-.08-.25.1-.15.19,6.3,6.23,16.7,1.39,24,.14a.4.4,0,0,0,.1-.74c-4.55-2.4-9.56-3.24-14.58-4a16.88,16.88,0,0,0,8.74-3.62c4.22-3.56,7.1-9.47,12.94-10.6.45-.09.34-.79-.1-.78-9.74.22-22.33.41-29.44,8.1a6.28,6.28,0,0,0-.55-3.54.47.47,0,0,0-.74-.1c-4.51,4.86-8.09,11.19-14.33,14.1-4.68,2.18-11.14,2.3-13.31,7.68a20.14,20.14,0,0,0-4.29-9.06c7.44-.21,15.47-4,19.29-10.37,4.33-7.25,4.11-16.09,2.64-24.14a15.68,15.68,0,0,0,.74-3.63c2.47,1.1,4.48,2.65,5.33,5.38a20.87,20.87,0,0,1,.8,6.7c-.09,4.37-.08,8.87-1.21,13.12-1.22,4.59-3.77,8.47-8.05,10.72-5.63,3-11.81,3-18,3.66-.22,0-.31.38-.05.42,6.12.9,14.27-.52,19.45-4a17.75,17.75,0,0,0,7.29-11.15,53.32,53.32,0,0,0,1-15.72,14.61,14.61,0,0,0-1.38-5.24c8,1.83,18.49,5.91,20.64,14.84a.26.26,0,0,0,.46.06c3.22-5.06,1.56-12.73-1.94-17.38a23.06,23.06,0,0,1,2.24.82.35.35,0,0,0,.48-.48,14.42,14.42,0,0,0-9.52-7.82,19.67,19.67,0,0,1,2.46,0,.37.37,0,0,0,.39-.41,33.69,33.69,0,0,1,14.79,5.26c3.86,2.62,7.08,6,10.64,9a.42.42,0,0,0,.69-.18,7.94,7.94,0,0,0-.52-4.54l.18.22c.18.24.61,0,.59-.24a16.07,16.07,0,0,0-3.18-8.53c.57.36,1.1.78,1.67,1.14.38.25.71-.22.56-.56a11.09,11.09,0,0,0-4-4.44,41.09,41.09,0,0,0-5.57-3.79,30.32,30.32,0,0,0-12.9-2.88,34,34,0,0,0-13.36,2.71l-1.62.65c2.81-2.72,6.45-4.39,9.46-6.87s7.08-4.11,9.8-7.15a11.77,11.77,0,0,0,2.55,5.66c2.56,2.93,6.35,3.89,10.13,3.55a11.78,11.78,0,0,0,9.22-5.76c1.24-2.2,2.33-4.42,4.57-5.79a19,19,0,0,1,7-2.5c.46-.08.4-.65.12-.87a4.9,4.9,0,0,0-2.19-1c2.06-3.1,4.2-6,5.71-9.41,1.14-2.62,2.33-5.83,1.73-8.72h0a.11.11,0,0,0-.21,0c-2,5.68-4.92,11.14-9.5,15,.18-.61.35-1.25.51-1.9,1.41-4.69,1.46-10.07,1.22-14.86-.15-3-.63-7.43-4.36-7.83a17,17,0,0,0-4.94.07c-2.14-.19-4.38-.62-6.36.18h0c4-2.79,8.34-5.06,12.18-8.06a31.49,31.49,0,0,0,8.47-10.2.21.21,0,0,0-.36-.21,34.66,34.66,0,0,1-11.75,11.9c-4.13,2.58-8.46,4.94-12.15,8.15a48.36,48.36,0,0,0-10,11.35,20.48,20.48,0,0,0-2.51,13.06.32.32,0,0,0,.65,0,37.18,37.18,0,0,1,.76-8,21.44,21.44,0,0,1,3.6-7.09,48.88,48.88,0,0,1,9.5-9.78h0c2.78-1.28,1.53,5.72,1.34,6.66-.52,2.54-1.17,5.27-3.1,7.1a24.41,24.41,0,0,0-8.84,11.84.3.3,0,0,0,0,.06h-.48a21.3,21.3,0,0,1,3.07-7.07l-.06,0a19.55,19.55,0,0,0-3.13,7.11,7.76,7.76,0,0,0-2.2.44.26.26,0,0,0-.19.26,3.6,3.6,0,0,1-1.23-.69q-.05-.57-.1-1.13a.11.11,0,0,0,.07-.13c0-.14-.07-.28-.11-.41a37.7,37.7,0,0,1,.35-9.24l-.06,0a35.42,35.42,0,0,0-.58,8.11,22.09,22.09,0,0,1,.07-8.38l-.1,0a15.61,15.61,0,0,0,.12,9.74q.06.65.14,1.3c-1.6-1.53-2.26-4.37-3.58-6-2.26-2.74-5.37-4.68-8.33-6.61a13.93,13.93,0,0,1,9.05,3.61c.15.14.48.11.52-.14.41-2.73-1.13-5.11-2.09-7.57a5.2,5.2,0,0,1,2.5,2.6c.11.25.49.16.54-.07.6-2.31-.51-4-.46-6.27,0-1.56.53-3,.54-4.43a46.07,46.07,0,0,1,3.3,6.72.21.21,0,0,0,.41-.11c-.7-3-2.4-5.68-4-8.34a.32.32,0,0,0-.59.25c.68,2.11-.55,3.87-.3,5.91.23,1.82.85,3.5.64,5.31a6,6,0,0,0-3.07-2.41.31.31,0,0,0-.37.37c.8,2.39,2.5,4.76,2.36,7.36a14.39,14.39,0,0,0-10.1-3.42.33.33,0,0,0-.17.61c3.78,2.54,7.95,5,10.19,9.06v0c-4.95,4-5,11.15-8.65,16.07a31.28,31.28,0,0,1-6.17,6.05c.33-5.12,1.55-10.61-1.49-15.16l-.11.07c2.88,4.64,1.53,10.12,1.41,15.24-1.7,1.29-3.48,2.49-5.26,3.72A14.93,14.93,0,0,0,167,57.5l0,.06c0,.1.19,0,.15-.09l-.09-.21a19.72,19.72,0,0,0,.93-3.95c.25.56.48,1.13.67,1.71l.07,0a16.63,16.63,0,0,0-.72-1.89,20.76,20.76,0,0,0,.15-2.94h-.1A20.13,20.13,0,0,1,168,52.9a21.94,21.94,0,0,0-1.18-2.22,22.19,22.19,0,0,0-.53-5.48,20,20,0,0,1,1.86,4.26l.11,0a17.25,17.25,0,0,0-2.1-4.75c-.16-.62-.33-1.24-.55-1.86l-.08,0c.17.51.3,1,.43,1.53a32.07,32.07,0,0,0-1.9-2.64l0-.24-.1,0v0l-.66-.81-.05.05.75.95a32.71,32.71,0,0,1,.6,5.61l-1.31-1.74,0,0,1.36,1.85a26.21,26.21,0,0,1-.35,4.71q-.67-.9-1.43-1.73a28.59,28.59,0,0,0,.36-3.37H163a28.39,28.39,0,0,1-.39,3.19q-.37-.4-.77-.79A28.62,28.62,0,0,0,163,42.24h-.11a28.41,28.41,0,0,1-1.13,7.15l-.42-.41,0,0,.44.46a43.77,43.77,0,0,1-1.51,4.35l.1,0a39.87,39.87,0,0,0,1.5-4.27q.39.42.76.85a23.55,23.55,0,0,1-1.82,5.7c-.05.12.12.22.18.11a20.46,20.46,0,0,0,1.81-5.61q.74.89,1.41,1.83a19.47,19.47,0,0,1-2.77,7.17,10.47,10.47,0,0,0-2.67-5c2.49-4.95,4.7-11,2.88-16.51,0-.13-.26-.11-.24,0a24.6,24.6,0,0,1-.21,8.36,35.7,35.7,0,0,1-3,7.68,5.31,5.31,0,0,0-.85-.52c-2.46-1.2-5.14-.84-7.63,0a10.35,10.35,0,0,0-.26-5.12l-.08,0a11.92,11.92,0,0,1,.16,5.16c-.49.18-1,.37-1.45.58l0,.11,1.35-.32h0c0,.1.13.14.15,0s0-.06,0-.09c2.4-.54,5.16-.95,7.23.37,2.71,1.72,3.43,4.88,4.18,7.8.11.44.87.36.81-.11l0-.12A26.42,26.42,0,0,0,165,53.79c.3.48.59,1,.87,1.45a30.75,30.75,0,0,1-2.23,6.18c-.06.12.12.23.19.11a25.19,25.19,0,0,0,2.27-5.86q.43.8.82,1.63a16.36,16.36,0,0,1-2.08,4c-1,.69-2,1.4-3,2.13a.27.27,0,0,0,.27.46l.11-.06c-.4.25-.8.51-1.2.78-.13.09,0,.29.12.21,1.07-.6,2.14-1.2,3.2-1.82-.53.7-1.09,1.38-1.6,2.1-.09.12.11.24.2.12.59-.8,1.19-1.6,1.75-2.42a25.77,25.77,0,0,0,4.76-3.52l.42-.31a11.67,11.67,0,0,1-3.55,3.31c-.11.07,0,.25.1.18l.3-.19a8.87,8.87,0,0,0-1.08.93h0a6.89,6.89,0,0,0-1.39,2l-2.91.92a15.11,15.11,0,0,0-3.71-5.83c0-.19,0-.38.05-.56.06-.6-1-.74-1.05-.14-.13.79-.24,1.62-.35,2.45-1.46,3.28-4.71,5.29-7.83,6.87A72.2,72.2,0,0,1,140,72.66a37.91,37.91,0,0,0-6.43,2.58c.83-1.76,1.32-3.65,2.13-5.41l-.06,0a40.44,40.44,0,0,0-2.28,5.42.09.09,0,0,0,.05.12c-2.12,1.26-3.71,3-3.46,5.69,0,.27.46.38.51.07,1.07-5.83,8.7-6.94,13.32-9s10.43-4.36,12.4-9.27c-.52,4-1.12,8.3-3.79,11.41-2.46,2.86-6,4-9.31,5.6-4.25,2-9.46,5.25-9.25,9.92a36.27,36.27,0,0,0-4.79-7.16,33.49,33.49,0,0,1,.29-5.38h-.07a14.2,14.2,0,0,0-.41,5.17c-.59-.67-1.2-1.31-1.83-1.91a.07.07,0,0,0,0-.08,19.13,19.13,0,0,1-.14-4.83h-.08a17.9,17.9,0,0,0,.06,4.81,26.21,26.21,0,0,0-2.14-1.82c-.1-1.14-.32-2.27-.35-3.42h-.12a25.69,25.69,0,0,0,.25,3.26,22.19,22.19,0,0,0-3.41-2.09,20.11,20.11,0,0,0,.19-2.39h-.11c0,.77-.28,1.54-.25,2.31a19.18,19.18,0,0,0-2-.84s0,0,0,0a14.88,14.88,0,0,1,.14-2.86h0a11.07,11.07,0,0,0-.31,2.85c-.37-.12-.74-.24-1.12-.34a.08.08,0,0,0,.09-.06c.13-.88.21-1.77.31-2.67l-.11,0c-.13.89-.27,1.77-.36,2.66a.07.07,0,0,0,.06.08l-.09,0a.23.23,0,0,0-.23.07.3.3,0,0,0-.29.15c-.19-.09-.38-.18-.57-.25a.12.12,0,0,0,.14-.1c.26-1.13.23-2.3.51-3.43a.1.1,0,0,0-.19-.05,22.41,22.41,0,0,0-.6,3.4.15.15,0,0,0,.07.14,9.84,9.84,0,0,0-5.39-.28,32.45,32.45,0,0,0,5.63-14.92c.53-6.11-2-12.18-.84-18.24a.6.6,0,0,0-.73-.73,51.8,51.8,0,0,0-14.95,6.59,31.94,31.94,0,0,0-3.73,3c2.16-4.27,6.14-7.18,10.31-9.48,5.55-3.06,11.33-3.08,17.47-2.49-2.8,2.9-5.33,6.57-5.55,10.64a.09.09,0,0,0-.14.07,101.39,101.39,0,0,0,1.15,15.16c0,.1.19.08.18,0-.38-4.35-.9-8.66-1.09-13,0,.06,0,.13,0,.19a24.41,24.41,0,0,0,1.18,4.27c.31,3.11.77,6.21,1.21,9.31h.11c-.36-3-.85-6-1.18-8.94a26.76,26.76,0,0,0,2,4c.28,2,.16,4.09.5,6.1,0,.14.26.11.24,0-.19-1.83-.08-3.77-.45-5.59a23.76,23.76,0,0,0,1.55,2.18c-.52,1.51-.13,3.44-.05,5a8.89,8.89,0,0,0-2.12-.71c-1.78-.31-3.85-.31-5-2-.1-.14-.35-.06-.29.12.89,2.47,3.51,2.15,5.6,2.94A14.86,14.86,0,0,1,130.29,75a.39.39,0,0,0,.7-.3,7.23,7.23,0,0,0-.31-.94c.16-1.42,0-2.86.2-4.28h-.11a33.62,33.62,0,0,0-.26,3.94,9.27,9.27,0,0,0-2.41-3.09c0-.92,0-1.83,0-2.75H128c0,.88,0,1.76,0,2.63a13.53,13.53,0,0,0-2.06-1.41,34.6,34.6,0,0,1-.19-3.88h0a15.44,15.44,0,0,0,0,3.74h0c-.5-.27-1-.56-1.6-.82,0-1.64-.05-3.28-.06-4.92A18.33,18.33,0,0,0,127.18,66l.1,0a.28.28,0,0,0-.13.46c1.45,1.58,4.87,1.64,6.85,1.6a22.57,22.57,0,0,0,8.29-1.65c4.64-2,8.63-6,7.28-11.38a.15.15,0,0,0-.29,0c-5.42-2.28-9.39,1.18-13.52,4.22v0c2.57-2.28,4.32-5.09,3.31-8.81-1.3-4.79-6.44-7.18-7.51-12a.53.53,0,0,0-1,0c-1.51,4.7-6,8.42-5.71,13.64.22,4,3.81,7,6.81,9.2.26.19.57-.23.35-.44-3-2.84-7.38-6.43-5.91-11.14,1.07-3.46,3.5-6.25,4.93-9.54,1.32,3,4.23,4.91,5.94,7.77a8.58,8.58,0,0,1-.86,10.32,9.82,9.82,0,0,0,.23-1.09c.79-1.84,1.61-3.89.76-5.79,0-.08-.17,0-.14.06a7.5,7.5,0,0,1-.5,4.66,15.49,15.49,0,0,0-.56-5l-.07,0a15.19,15.19,0,0,1,.45,5.46c-.18.47-.36.94-.53,1.4-.05.14.16.19.22.06l.1-.23c-.06.25-.13.5-.21.74q-.41.47-.88.92a8.84,8.84,0,0,0,.19-4.41l-.1,0a10.26,10.26,0,0,1-.39,4.66l-.26.24a.13.13,0,0,0,0,.21c-.42.29-.84.56-1.26.82a15.19,15.19,0,0,0,.3-11.79l-.11,0a15.86,15.86,0,0,1-.73,12.08c-.32.18-.64.35-1,.51s-.06.44.16.38l.46-.15-.11.22a.12.12,0,0,0,.21.13c.1-.15.19-.31.28-.47a12.87,12.87,0,0,0,1.59-.7l-.27.28.12.12a6.17,6.17,0,0,0,.58-.62,48.24,48.24,0,0,0,4.7-3.26,12.06,12.06,0,0,1,9.87-2.34c.34,5.48-3.61,9.11-8.62,10.66a21.79,21.79,0,0,1-7.55,1,23.5,23.5,0,0,1-4.14-.85c4.51.3,9.5.06,13.48-2.12l0,0c-3.37,1.69-6.82,1.73-10.36,1.75a18.46,18.46,0,0,0,8.86-3.69l-.05-.07a18.89,18.89,0,0,1-8.49,3.33,21.52,21.52,0,0,0,3.76-2.37l-.05-.09a25.77,25.77,0,0,1-4.54,2.57c-.85.1-1.71.17-2.56.2a.13.13,0,0,0-.1.19h-.22l-.29-.32c1.29-.2,2.51-1.08,3.69-1.52a42.52,42.52,0,0,0,4.43-1.84l0,0c-1.64.74-3.36,1.26-5,1.88a25,25,0,0,1-3,1.21c.86-1,1.9-2.57,1.84-3.93h-.1a8.31,8.31,0,0,1-1.83,3.8c-1.17-1.65-2.18-3.41-3.21-5.14l-.08,0a56.08,56.08,0,0,0,3.23,5.14l.07,0-.08.11,0,0-.15,0C125.38,62,124.27,57.6,122,53.87l-.07,0c2.18,3.76,3.29,8.21,6.17,11.52a3.54,3.54,0,0,1-.53,0h0c-.87-1-1.74-2-2.57-3.06-1.22-2.27-2.65-4.54-2.72-7.17h-.12c-.1,2.15.9,4.11,1.95,6a22.47,22.47,0,0,1-4.4-9.4c-.9-5.1,1.6-9.57,4.64-13.46a.12.12,0,0,0,.1-.13l.28-.36,0,0-.3.3,0,0a31.77,31.77,0,0,0-6-.8c-2.23-1.25-4.33-2.69-6.53-4l0,.06a63.26,63.26,0,0,0,6,3.93,25.16,25.16,0,0,0-4.39.31c-5.11-1.23-10.74-3.26-15.9-1.3-.13,0-.08.24.06.21,5.28-1.52,10.41.07,15.6,1.14a21.86,21.86,0,0,0-2.21.5,38.75,38.75,0,0,0-8.57-.77v.11a45.38,45.38,0,0,1,8.24.76c-.59.17-1.17.37-1.74.6-1-.16-2-.41-3-.56l0,.08c.95.15,1.88.38,2.83.55l-.73.32c-2.77-.48-5.6-.19-8.4-.24v.11c2.68.15,5.34,0,8,.32a20.05,20.05,0,0,0-2,1.11l-1.84,1.17a14.89,14.89,0,0,0-4.16.11v.08a21.77,21.77,0,0,1,3.94,0A39.92,39.92,0,0,0,100,44.36c-4.45.06-9,.35-13.37-.52-3.24-.64-6.87-2.42-10.22-1.74,2.6-1.39,4.94-3.18,7.66-4.41a40.87,40.87,0,0,1,9.17-3,32.16,32.16,0,0,1,19.5,2.13l.05-.08a28.07,28.07,0,0,0-19.07-2.91,40.1,40.1,0,0,0-9.41,2.92c-2.84,1.3-6.07,2.81-8.33,5a.25.25,0,0,0,.17.43v.12C80,43.22,84,44.59,87.94,45c3.47.35,7.38.92,10.92.37-1.54,1.42-3.5,3.36-3.25,5.61l0,0a32.29,32.29,0,0,0-5,6.52c-.84-5.15-3.25-13.3-9.44-12.75-3.81.34-5.57,3.07-6.13,6.32-1.79,3.84-1.74,8.63-1.12,12.71.71,4.7,2.2,9.87,5,13.75.13.18.42,0,.31-.18-4.25-7.52-6-15.86-4.43-24.28a19.45,19.45,0,0,0,.93,6.52,43.53,43.53,0,0,0,5.49,10.76A59.17,59.17,0,0,0,89,80.19a.28.28,0,0,0,.45-.34c-2-3.28-4.77-6.11-7-9.28a46,46,0,0,1-5.24-9.36c-1.18-3.06-2.25-6.66-1.48-9.95A9.11,9.11,0,0,1,76.65,49a5.33,5.33,0,0,1,1.45,2.87l.07,0a4.9,4.9,0,0,0-1.49-2.9,8.42,8.42,0,0,1,.88-1.29,6.5,6.5,0,0,1,2.81,4.11c0,.11.18.06.17,0a5.65,5.65,0,0,0-2.91-4.14,7.41,7.41,0,0,1,.51-.55c1.81.08,3.3,1.79,3.88,3.42,0,.1.2.06.17,0-.52-1.61-2.05-3.45-3.85-3.55a5.7,5.7,0,0,1,.95-.69c3.4.22,4.78,4.83,5.07,7.68h.12c-.24-2.83-1.66-7.5-5-7.75a4.44,4.44,0,0,1,1.23-.43c3.74.61,5.31,6.28,5.65,9.51,0,.11.17.11.16,0-.21-3.12-1.78-8.7-5.3-9.58a4.63,4.63,0,0,1,2.8.79c6.1,3.86,6.07,13.23,6.42,19.58a75.25,75.25,0,0,0,3.79,21l.09,0a82,82,0,0,1-2.68-15.15c-.35-4.25-.24-8.54-.75-12.77,0-.33-.09-.68-.14-1C95.81,50.12,104.24,45.41,113,42.6a14.56,14.56,0,0,0-7.28,10.65c-1,7.58,3.64,14.5,2.35,22.1,0,.13.18.19.2.06,1-6.56-2.07-12.64-1.9-19.16a15.46,15.46,0,0,1,2.5-8.42,20.81,20.81,0,0,1,4.72-4.64c-2.86,4.91-1.85,10.47-1.33,15.88,0,.1.16.1.15,0-.39-5.57-1.16-10.92,1.46-16.09l.4-.3C112,47.43,113.38,53,114,58c0,.09.15.09.14,0-.34-5.07-2-10.61.25-15.46-.49,5,1.2,9.88,1.19,14.9a36.32,36.32,0,0,1-4.81,17.19,16.78,16.78,0,0,0-4.43,1.69,17.87,17.87,0,0,0-.81-11.5l-.07,0a18.59,18.59,0,0,1,.68,11.58c-.4.22-.79.46-1.17.71a16.79,16.79,0,0,0,.24-6l-.09,0a17.83,17.83,0,0,1-.34,6.13,23.11,23.11,0,0,0-2.56,1.95,30.63,30.63,0,0,0-2.92,3c.74-3,1.59-6.05,2.47-9.06l-.06,0c-.9,3.06-1.81,6.13-2.55,9.24A25.54,25.54,0,0,0,97,85.43a66.54,66.54,0,0,1,1.14-7.21c.58-2.15,1.44-4.21,1.83-6.4h0c-.5,2.43-1.63,4.69-2.1,7.13-.43,2.28-.71,4.58-1.06,6.87q-.37.63-.69,1.28a68.07,68.07,0,0,1,.73-8.63c.46-2.59,1.21-5.1,1.19-7.75H97.9c0,3.14-1,6.18-1.49,9.27a65.07,65.07,0,0,0-.53,7.46,11,11,0,0,0-1.09,6.74.2.2,0,0,0,.39,0c1.12-5.42,3.16-10,7.42-13.79q.93-.82,1.92-1.53l.07,0,0-.09a17.35,17.35,0,0,1,12.33-3.38.33.33,0,0,0,.08.21c2.35,2.6,5.13,4.69,5.93,8.31.66,3-.13,6.16.87,9a38,38,0,0,0,4,7.42c1.5,2.4,3.64,5.58,3,8.57-1.66,7.73-11.26,6.59-16.76,4.57s-9.86-5.15-14.61-8.19l0-.06,0,0-1.3-.83c-.14-.09-.26.1-.17.21a15.44,15.44,0,0,0,2.25,2.25,95.73,95.73,0,0,0,8.37,12.75l.13-.07a123.64,123.64,0,0,1-8.22-12.44c.67.54,1.38,1,2.11,1.52,1.59,3.68,4.19,6.8,6.67,9.91l.1-.08c-2.38-3.14-5-6.17-6.66-9.75.77.5,1.54,1,2.3,1.42a85,85,0,0,1,5.12,7.08c.06.08.19,0,.14-.08a65.63,65.63,0,0,0-5.08-6.89l.36.21a53.63,53.63,0,0,0,5.6,2.89c1.73,2,3.48,4,5.29,6l.08-.08c-1.72-1.94-3.46-3.87-5.18-5.81.66.28,1.32.56,2,.8,1.56,1.5,3.05,3.08,4.67,4.53l0,0c-1.56-1.42-3-3-4.54-4.42.82.3,1.64.57,2.47.8s1.45.36,2.24.5c1.63,2.17,3.48,4.15,5.15,6.29l.12-.09c-1.55-2.21-3.47-4.1-5.18-6.18a21.94,21.94,0,0,0,3.12.3l.23,0c.95,1.25,2.1,2.33,3.13,3.51.08.09.2,0,.13-.13-1-1.14-2.06-2.16-3-3.33a12.41,12.41,0,0,0,3.63-.05,32.19,32.19,0,0,0,1.68,2.81l.1-.06c-.61-.9-1.21-1.81-1.73-2.77.84-.12,1.66-.29,2.39-.47l.21-.06a22.39,22.39,0,0,0,1.36,2.57l.07,0c-.48-.83-1-1.68-1.35-2.55.63-.16,1.25-.34,1.87-.55.43.9.88,1.78,1.24,2.71,0,.1.2.06.16,0a25.19,25.19,0,0,0-1.26-2.71,15.67,15.67,0,0,0,1.73-.73,13.79,13.79,0,0,1,1.48,3.26.07.07,0,0,0,.13,0,12.48,12.48,0,0,0-1.51-3.27,11.9,11.9,0,0,0,1.43-.85,20.54,20.54,0,0,1,1.19,2.94l.08,0a15.77,15.77,0,0,0-1.21-3c.25-.18.5-.37.73-.57s.41-.37.6-.57a13.61,13.61,0,0,1,1.65,3.8l.11,0A10.62,10.62,0,0,0,135,112c3.06-3.23,3.07-8.08,2.28-12.3a33.93,33.93,0,0,0-1-4c1.44-.12,2.2-1.28,2.9-2.45a11.89,11.89,0,0,1,5.4-5.09c4.12-1.85,9.06-2.11,12.62-5.11a14,14,0,0,0,4.18-6.07c.51,7.53,1.12,16.1-2.91,22.82a22.53,22.53,0,0,1-9,8.53c-3.91,1.89-8,2.23-12.27,2-.51,0-.5.74,0,.78s1.07.06,1.61.07a.3.3,0,0,0,0,.1c2.06,3.89,5,8.76,3.79,13.37a7.29,7.29,0,0,1-3.36,4.43,7,7,0,0,0,1-4.92l-.07,0a7.12,7.12,0,0,1-1.17,5,8.85,8.85,0,0,1-1.58.69,4.75,4.75,0,0,0,.93-4.44h0a5,5,0,0,1-1.14,4.51l-1.8.59a8.86,8.86,0,0,0,.78-3H136a8.82,8.82,0,0,1-.85,3.06c-2.43.81-4.9,1.65-7.36,2.24a15.53,15.53,0,0,1-3.48.44,41.74,41.74,0,0,1-9.64-5.14l0,0a29.5,29.5,0,0,0,9.27,5.1c-5.65-.07-10.51-3.36-14.21-7.94a50.86,50.86,0,0,1-6-9.38v0a75.49,75.49,0,0,0,6.42,7.93l0,0a84.13,84.13,0,0,1-7-9.07,75.91,75.91,0,0,0-3.62-7.83.39.39,0,0,0-.72.3c.8,3.9,2.93,7.94,4.89,11.38.77,1.36,1.6,2.71,2.49,4-1.06,4.58-3.24,9.64-8.16,10.92a.21.21,0,0,0,0,.4c2.78.53,1.72,2.52.54,4.11-1,1.37-2,2.79-2.94,4.19a66.27,66.27,0,0,1-7.76,9.36l0,.05c1.24-1.16,2.4-2.39,3.52-3.66A46.5,46.5,0,0,1,87.71,153a.09.09,0,0,0,0,.08,9.48,9.48,0,0,0-1.92,1.18.3.3,0,0,0,.29.51c2.31-.88,4.39-2.33,6.72-3.23s4.41-1.58,6.63-2.33c1.64-.55,3.25-1.1,4.82-1.7,1-.18,2-.29,3-.39l-.52.31.06.11.81-.45a93.66,93.66,0,0,1,9.85-.21v-.09c-3-.09-6.12-.24-9.18-.07l.64-.33a59.56,59.56,0,0,1,16.35.26v0a56.42,56.42,0,0,0-16-.38l.26-.13A110.47,110.47,0,0,1,121.62,144v0A99.43,99.43,0,0,0,110,145.86l2.72-1.33c2-1,4.12-2.55,6.39-2.93v0c-2.12.3-3.89,1.59-5.78,2.51-1.33.65-2.68,1.26-4,1.93l-2.65.55a36.47,36.47,0,0,0,5.26-2.77c7.68-4.93,14.89-10.27,24.08-11.92.15,0,.11-.26,0-.26l-.52,0,1.06-.28a12.1,12.1,0,0,0,3.81-1.49,8.21,8.21,0,0,0,3.28-4c5.16-1.23,9.93-.11,15.08.62l.77.1a.12.12,0,0,0,.13.13l.43-.07a16.1,16.1,0,0,0,10.31-2.28c-.54,3-3.81,4.77-6.29,6.19a.38.38,0,0,0,.19.71c5.07.09,11.59-2.81,16.49-.68a59.31,59.31,0,0,0-20,4.8c-.39.17-.13.67.19.71a14.55,14.55,0,0,1,2.43.47c-3.56.09-7.09-.1-10.47,1.28s-5.68,5.09-9.58,4.93c-.59,0-.58.87,0,.91a6.18,6.18,0,0,0,1.12,0c7.44,6.54,17,10.51,26.91,8.63A27.47,27.47,0,0,0,183,146.67c2.81-2.15,5.31-4.62,8.07-6.78a36.63,36.63,0,0,0-3.8,5.57.18.18,0,0,0,.24.25c5.37-3,10.77-5.42,16.76-4.94-7.51,1.22-14,6.74-20.68,10a.28.28,0,0,0,.07.51,9,9,0,0,1,3.06,1.13,6.25,6.25,0,0,1,1.57,1.2.79.79,0,0,1,.43,1,20.76,20.76,0,0,0-7.12-1.37c-5,0-9.75,1.37-14.62,2.33-5.24,1-10.9,1.52-16-.57a24.3,24.3,0,0,1-9.2-7.22c2.27,2.26,5.26,3.94,7.83,5.66l.05-.09c-3.52-2.41-7.42-4.64-9.77-8.32a11.31,11.31,0,0,0,0-4.39,11.32,11.32,0,0,0,5.26.65.09.09,0,0,0,0-.18,14.62,14.62,0,0,1-5.31-.71,21.61,21.61,0,0,0-2.41-6,.11.11,0,0,0-.2.09c1.17,3.64,3.73,9.44.56,12.77-3.88,4.07-10.52,3.08-15.44,2.07-4.66-1-9.57-2.46-14.38-1.83A25.23,25.23,0,0,0,95.35,153c-.4.33.11.92.53.69,2.89-1.55,5.55-3.46,8.74-4.38a21.1,21.1,0,0,1,8.66-.64c4,.53,8,1.77,12.08,2.3-2.31,1.81-3.2,6.5-2.4,9,1,3.13,5.67,9.47,3,12.54a.25.25,0,0,0,.24.41c2.74-.5,4.67-4.21,5.66-6.5a18.73,18.73,0,0,0,1.88-8.23,84.77,84.77,0,0,0,3.33,9.08c.12.3.64.3.61-.08a8.37,8.37,0,0,0-.23-2.42c.37.66.74,1.33,1.11,2,.85,1.56,1.69,3.14,2.41,4.77a25.89,25.89,0,0,1,2.61,10.86.16.16,0,0,0,.26.11c4.84-4.43,7.65-12.33,7.12-19.44a90,90,0,0,1,1.17,11.38c.15,2.64.34,5.54,1.85,7.81s3.78,4.06,5.9,5.88a.27.27,0,0,0,.45-.26c-.22-1-.46-2-.68-3,2.64,3,5.43,5.79,8,8.79a.31.31,0,0,0,.53-.22c0-.52,0-1,0-1.54.73,1.43,1.41,2.89,2.19,4.3,1.08,2,2.39,3.82,2.32,6.16,0,.26.38.46.56.23a20.27,20.27,0,0,0,4.46-11.38,28.9,28.9,0,0,0-1.62-12.4c-2.15-5.79-6.57-12.27-12.38-15.4l.87.31a39.48,39.48,0,0,1,10.37,5.5,59.74,59.74,0,0,1,7.73,7.47c.14.16.46,0,.37-.21a19.36,19.36,0,0,0-6.4-7.95c-1.35-1.05-2.77-2-4.16-3a26.88,26.88,0,0,0,3,1.37,30.83,30.83,0,0,1,2.72,1.63c.15.1.34-.14.2-.26a36.71,36.71,0,0,0-7.05-4.9A12.52,12.52,0,0,0,168,162a16.93,16.93,0,0,1,5.24,1.5c.21.1.39-.2.18-.31-3.68-2-8.7-3-11.71-6,5.59-.53,11.09-2.36,16.6-2.92a53.7,53.7,0,0,1,5,3.11c-.65,1.37-2.43,1.56-3.5,2.52a5,5,0,0,0-1.79,2.76,4.52,4.52,0,0,0,2.33,4.93c2.1,1.28,4.69,1,6-1.23,1.38-2.37.29-5.48-1.21-7.68a43.71,43.71,0,0,1,7.69,7.46c-1.89-.36-3.93.91-5.08,2.5a4,4,0,0,0,.85,5.78,4.29,4.29,0,0,0,6.09-.86,5,5,0,0,0,1-3.24,36.84,36.84,0,0,1,1.74,3.26,34.22,34.22,0,0,1,1.91,5,6.53,6.53,0,0,1-1.1,3.5.07.07,0,0,0,.13.07,6.48,6.48,0,0,0,1.07-3.24c.12.44.23.88.33,1.32a8.89,8.89,0,0,1-.79,2.58c0,.08.08.16.13.07a8.27,8.27,0,0,0,.75-2.28q.17.84.28,1.68a.21.21,0,0,0-.05.07c-1.74,3.78-7.32,2.51-6.81-1.71a5.1,5.1,0,0,1,2-3.61,3.31,3.31,0,0,1,1.35-.54,20.93,20.93,0,0,0-.57,2.66l.08,0a20.64,20.64,0,0,1,.56-2.7l.44,0a4,4,0,0,1-.1,2.11.09.09,0,0,0,.17,0,3.85,3.85,0,0,0,.09-2.16c.25,0,.51,0,.79,0a10.57,10.57,0,0,1-.45,3.84l.13,0a9.56,9.56,0,0,0,.46-3.86l.24,0,.05-.13c-1.19-1-3.07-.49-4.11.5a6.23,6.23,0,0,0-1.58,2.44c-3-2.78-8.42-1.15-7.6,3.51a5.32,5.32,0,0,0,4.3,4.27,2.12,2.12,0,0,0-.67,1.37c-1.54-.55-3.1-.64-4.42.6a5,5,0,0,0-1.59,4.07c.15,2.45,2.85,4.68,5.31,3.86a5.1,5.1,0,0,0,3.2-4.92,3.23,3.23,0,0,0-1.85-3,.4.4,0,0,0,.08-.22,5.54,5.54,0,0,1,.34-1.71h.06c2,.28,4.11-.53,4.59-2.51a4.25,4.25,0,0,0,1.47.57,3.79,3.79,0,0,0,4.13-2.09,18.17,18.17,0,0,1-.15,4.73c0,.11,0,.22-.06.33-1.88-.91-5.09-.83-6,1.34s.28,5.41,2.92,5.77a65.8,65.8,0,0,0-4.64,4.79,3.86,3.86,0,0,0-.79-.54,4.49,4.49,0,0,0-4.19-1,4.72,4.72,0,0,0-2.61,2.08,4.2,4.2,0,0,0,1.44,5.88,5.09,5.09,0,0,0,6.93-2.77,3.4,3.4,0,0,0-.24-3,13.91,13.91,0,0,0,5.16-4.86,4.2,4.2,0,0,0,4-6.41,12.47,12.47,0,0,0,.38-1.31c0-.12,0-.24.06-.36,1.22,2.37,2.4,4.75,3.42,7.19a22.44,22.44,0,0,1-1.76,8.22c-.06-.07-.14-.14-.21-.2a.25.25,0,0,0,0-.38c-1.11-.94-2.59-2.12-4.16-1.5a4.1,4.1,0,0,0-2.4,2.34c-.91,2.3-.07,5.45,2.47,6.32a4,4,0,0,0,5-2.86,3.83,3.83,0,0,0-.34-3.25l.06-.12a.18.18,0,0,0,.27,0,9.21,9.21,0,0,0,2.2-5.73c.35,1,.68,2,1,3a45.38,45.38,0,0,1,1.43,7.15" style="fill: #601524"/>
    <path d="M142.46-17.45l.1,0a7.6,7.6,0,0,0,.7.76l.1-.1c-.18-.18-.37-.37-.54-.57l.63.24c.09,0,.13-.11,0-.15l-.22-.08a.09.09,0,0,0,0-.06,3.42,3.42,0,0,1-.48-.62l.12,0v-.14a1,1,0,0,1-.21-.05,6.9,6.9,0,0,1-.31-.64c0-.08.09-.15.13-.24l-.1-.06-.1.14-.21-.52c0-.06,0-.12,0-.18a.07.07,0,0,0-.1-.06l-.1-.24h0A4.14,4.14,0,0,1,143-22.65a3.73,3.73,0,0,1,.49-.42,2.49,2.49,0,0,0-.5,1.93c.09.51.68.84,1.05,1.17a4.72,4.72,0,0,0,.54.71,15.62,15.62,0,0,1,.53,2c.58,1.76,2.37,1.45,3.54.44a3.12,3.12,0,0,1-.9.88c-1.73,1.08-4.2.17-5.29-1.51m-2,7.93h0a14.38,14.38,0,0,0-1.13,7.34,20.47,20.47,0,0,1-.43-4.58,36.6,36.6,0,0,1,2.69-11.64,5.74,5.74,0,0,0,1.31,2.2,17,17,0,0,0-2.43,6.68m1.82-8.7,0,.13.11,0a2.78,2.78,0,0,0,.44.61l-.17-.06a2.27,2.27,0,0,1-.16-.24l-.11.06.07.11-.09,0a3.46,3.46,0,0,1-.32-.73v0h0a1.66,1.66,0,0,0,.11-.13c0,.11.09.21.14.31m-.2-.49-.11.13c0-.09,0-.18-.06-.27a.1.1,0,0,0,.13,0l0,.13m-.19-.7V-19a4.81,4.81,0,0,1-.05-.79c0,.12,0,.23.06.35m4.38-4.75h0l0,0h-.05m2.9,6.23c-.65,1-2,1.83-3,1.41-1.24-.49-1-1.6-1.36-2.51a4.05,4.05,0,0,0,3.06,1.2v0a4.76,4.76,0,0,1-3.76-2.22l0,0-.37-.4c-.94-1-.44-1.86.31-2.55-.89,2,1.57,3.14,2.58,4.5a.12.12,0,0,0,.21-.12c-.73-1.6-3.36-2.22-2.7-4.33L144-23a10.55,10.55,0,0,1,.86-.69l.6-.18a5.59,5.59,0,0,1,3.14,1.82,6.34,6.34,0,0,1,.46,1,.12.12,0,0,0,.14.08,4,4,0,0,1,.18.76,5.23,5.23,0,0,1-.21,2.29m-1.63,3.17c2.1-.77,3-3.28,2.77-5.35a4.51,4.51,0,0,0-3-3.73,3.42,3.42,0,0,0-.88-.41.21.21,0,0,0,0-.4,2.85,2.85,0,0,0-1.45,0s0,0,0,0c0-3.35-.06-6.6.85-9.86l-.09,0c-.11.31-.2.62-.3.94.1-.54.21-1.09.32-1.64l-.08,0A24.49,24.49,0,0,0,144-26.4a.18.18,0,0,0,.36,0c0-.32.07-.62.1-.94a16.49,16.49,0,0,0,.22,2.65s0,0,0,.05c-2.21.69-3.74,3.88-3.24,6-1.48,3.55-3,7.3-3.13,11.19a31.59,31.59,0,0,0,2.4,12.16c.21.57.44,1.14.66,1.71-3.14-6.67-5.68-13.38-3-21.08.06-.18-.23-.31-.32-.14-4.33,9.31.79,18.35,4.85,26.73,4.52,9.33,7.65,20.18,5.62,30.57A6.63,6.63,0,0,0,142.81,40a5.23,5.23,0,0,0-2,.6c2.76-3.33,2.5-8.79,1.74-12.77a30.91,30.91,0,0,0-3.07-8.62c-1.79-3.43-4-7.05-4.2-11a.16.16,0,0,0-.31,0c0,.24,0,.47-.07.7q-.08.06,0,.33a53,53,0,0,1-2.27,10A26.71,26.71,0,0,0,131.32,24a18,18,0,0,0-2.78-4c-2.52-2.62-5.36-4.83-7.09-8.1-.18-.34-.8-.21-.76.2.39,3.77-1.7,8-1,11.79-1.83-2.37-3.83-4.54-5-6.24a.49.49,0,0,0-.89.37c.67,3-.72,6.15-.28,9.14-3.49-4.33-7.16-8.43-12.31-10.86-.26-.12-.59.14-.42.42.64,1,1.46,1.9,2,2.95-5-3.53-10.84-6.38-17.09-5.41-.29,0-.21.43,0,.52A10.15,10.15,0,0,1,88,15.95q1.41,1,0,.73a11.21,11.21,0,0,0-2.63.38,23.68,23.68,0,0,0-5.13,2.39c-3.62,2.1-7.37,3.53-10,6.91a.28.28,0,0,0,.2.47c8,0,15.82-1.51,23.69.5,6.51,1.66,11.8,5,17.32,8.68a.11.11,0,0,0,.13-.17c-.64-.58-1.31-1.14-2-1.69a32.23,32.23,0,0,0,4.87,2.77l0-.06c-5.12-2.53-9.15-7-14.67-8.74-.1,0-.13.12,0,.15a27.62,27.62,0,0,1,5.41,2.87,39,39,0,0,0-10.89-4.41c-7.79-1.81-15.38-.58-23.24-.46,2.32-2.67,5.27-3.92,8.32-5.67,3.26-1.88,6.2-3.58,10.1-3.33a.27.27,0,0,0,.23-.4,7.28,7.28,0,0,0-2.87-2.19c6.07-.58,11.86,2.48,16.58,6.06.19.15.48-.09.4-.31A12,12,0,0,0,102,17.37c4.59,2.47,8.08,6.32,11.61,10.11a6.53,6.53,0,0,0,.21.82c1.06,3.2,3.82,6,6.31,8.14.11.09.29,0,.21-.16-2-3.17-6-5.92-5.93-10,0-2.27.58-4.41.54-6.63,1.73,2.26,3.73,4.31,5.31,6.68a13.42,13.42,0,0,1,2.33,4.89c.42,2.31-.31,4.07-1.29,6.13a.09.09,0,0,0,.14.11c3.79-3.39,2.35-7.58-.25-11.47a.39.39,0,0,0,0-.26c-1.86-3.78.24-8,.41-12.07,2.45,3.68,6.24,6.29,8.48,10.16a20.62,20.62,0,0,1,2.58,6.15c.5,2.5-.08,3.7-1.76,5.47a.13.13,0,0,0,.09.23c4.64-.25,2.38-7.57,1.31-9.85l0-.05c-.18-4.86,2.25-9.41,2.88-14.23l0-.38a9.36,9.36,0,0,0,.26,1.26,36.87,36.87,0,0,0,2.52,6.12c3.18,6.53,7.09,16.85,1.07,23a.28.28,0,0,0-.05.08,4.74,4.74,0,0,1-1.22.37c-3.28.46-3.5-3-5-4.86-2.34-2.85-6.93-2.53-9.57-.23a.28.28,0,0,0,.27.46c2.4-.85,4.87-2.5,7.44-.92,1.75,1.07,2.7,3.31,3.54,5.13,1.32,2.87,4.81.73,6.55,0,7.21-3.12,9.09,6.65,11.31,11.13.06.12.22,0,.2-.08-.51-3-1.43-6.83-3.39-9.5,2.09-7.51.82-15.49-1.64-22.87-.18-.65-.37-1.3-.58-1.94-1.34-4.18-3.26-8.13-4.86-12.21l-.51-1.32C139-3,148.63-7.07,152.3-12.35c.16-.23-.2-.43-.37-.22C149.25-9,144.45-7,142.34-3A10.84,10.84,0,0,0,141,3.51q-.47-1.29-.87-2.6h0a17.46,17.46,0,0,1,.3-10,31.85,31.85,0,0,0,0,7c0,.11.19.12.18,0-.33-5-.09-9.56,2.39-14a4.37,4.37,0,0,0,4.58,1.37" style="fill: #601524"/>
    <path d="M54.46,145.34a59.49,59.49,0,0,0-5.07-32.4h0a61.89,61.89,0,0,1,5,32.4Z" style="fill: #601524"/>
    <path d="M46.51,113.16a83.31,83.31,0,0,1,7.63,30.41h.1a79.43,79.43,0,0,0-7.7-30.42Z" style="fill: #601524"/>
    <path d="M44.73,120.44a99.71,99.71,0,0,1,8.07,24.92c0,.08.14,0,.13,0a96.5,96.5,0,0,0-8.16-24.9Z" style="fill: #601524"/>
    <path d="M52.25,146.2c-1.35-8.44-6.57-15.42-11-22.48h0c4.43,7.14,9.4,14.07,10.94,22.5Z" style="fill: #601524"/>
    <path d="M36.16,130.53l0,0a116,116,0,0,1,10.75,11.28l.1-.1a103.53,103.53,0,0,0-10.81-11.22" style="fill: #601524"/>
    <path d="M54.91,126.38l-.06,0a58.09,58.09,0,0,1,1.48,17.4h.13c.64-5.91-.27-11.66-1.55-17.42" style="fill: #601524"/>
    <path d="M65.69,120.46h0c.13,5.13-1.11,10.07-2.45,15h0c1.34-4.92,2.57-9.85,2.44-15" style="fill: #601524"/>
    <path d="M61.69,115.61a49,49,0,0,1-1.16,20.9.07.07,0,0,0,.14,0,48.24,48.24,0,0,0,1.1-21Z" style="fill: #601524"/>
    <path d="M26.63,78.67a31.78,31.78,0,0,1,12.77,6.07l0,0a29.72,29.72,0,0,0-12.78-6.09Z" style="fill: #601524"/>
    <path d="M39.17,86.94l0,0a40,40,0,0,0-19-8.65l0,.09c7,1.6,13.34,4.11,19,8.59" style="fill: #601524"/>
    <path d="M47.46,88.36a62.83,62.83,0,0,0-7.27-6.62h0a62.78,62.78,0,0,1,7.25,6.62Z" style="fill: #601524"/>
    <path d="M38.69,95.32l.08,0c-3.9-7-11.12-11.82-18-15.66l0,0c6.92,3.94,13.74,8.72,17.9,15.68" style="fill: #601524"/>
    <path d="M28.25,90.45l0,0A138.19,138.19,0,0,1,20.15,79h0a123.15,123.15,0,0,0,8.13,11.48" style="fill: #601524"/>
    <path d="M24.77,94.17c-1.67-4.46-3.64-8.82-4.4-13.55h0c.74,4.74,2.67,9.12,4.37,13.56Z" style="fill: #601524"/>
    <path d="M21.57,97.14a135.57,135.57,0,0,1-1.53-16h0a136.41,136.41,0,0,0,1.5,16Z" style="fill: #601524"/>
    <path d="M31.5,132.32c4.56,3.74,9.15,7.59,14.3,10.52l.05-.09a151.6,151.6,0,0,1-14.32-10.46Z" style="fill: #601524"/>
    <path d="M44.36,143.22c.13,0,.18-.16.05-.21C38,140.4,31.79,137.73,26,133.91l0,.07a78.2,78.2,0,0,0,18.38,9.24" style="fill: #601524"/>
    <path d="M72.79,137.2c-.83,2.34-2.28,4.37-3.18,6.68s-1.81,4.61-2.56,7c0,.14.18.24.24.1,1-2.26,1.74-4.65,2.61-7s2.24-4.38,2.94-6.74Z" style="fill: #601524"/>
    <path d="M91.82,134.84a28.63,28.63,0,0,0,3.3-7.06l-.07,0a31.32,31.32,0,0,1-3.33,7Z" style="fill: #601524"/>
    <path d="M89.35,127.64c-2.35,2.89-5.38,5.18-6.87,8.69l.08,0c1.58-3.47,4.48-5.79,6.82-8.7Z" style="fill: #601524"/>
    <path d="M42.36,112.93c1.61,2.92,3,5.93,4.47,8.94A58.45,58.45,0,0,1,52.38,142h.1a56.19,56.19,0,0,0-5.39-20.31,104.34,104.34,0,0,0-5.29-10.23c-1.24-2-2.71-4.46-4.7-5.79l-.07.12c2.3,1.6,4,4.72,5.33,7.11" style="fill: #601524"/>
    <path d="M81.8,111.83a21.37,21.37,0,0,0,9.72-6.4l-.06-.06a22.24,22.24,0,0,1-9.69,6.35Z" style="fill: #601524"/>
    <path d="M79.5,111.54c2.93-1.12,5.79-2.19,7.93-4.58l0,0c-2.19,2.35-5,3.28-7.95,4.43-.12,0-.07.24.05.19" style="fill: #601524"/>
    <path d="M80.23,109.92l0,0a.07.07,0,0,0,0,.07,10.74,10.74,0,0,1-.76.81c-.1.1,0,.24.15.15a8.7,8.7,0,0,0,1-1,8.79,8.79,0,0,0,4.65-5.08l-.07,0a8.92,8.92,0,0,1-4.29,4.75c2.55-3.28,2.63-8.07,2.06-12h-.07c.56,4.35.23,9-2.64,12.35" style="fill: #601524"/>
    <path d="M78.68,111.49l-.06.13a.09.09,0,0,0,.12.13c.06.05.19,0,.18-.08l0-.21a9.88,9.88,0,0,0,1-5.29h0a10.11,10.11,0,0,1-1,4.94,30.13,30.13,0,0,1,.08-7.58H78.9a24.34,24.34,0,0,0-.22,8" style="fill: #601524"/>
    <path d="M78.25,111.88a21.18,21.18,0,0,1,0-4.5l-.12,0a13.91,13.91,0,0,0,0,4.53c0,.12.21.13.2,0" style="fill: #601524"/>
    <path d="M76.31,108h-.05a6.25,6.25,0,0,0,1.06,3.34.07.07,0,0,0,.13-.07A7.25,7.25,0,0,1,76.31,108" style="fill: #601524"/>
    <path d="M68,94.9a25.3,25.3,0,0,0,7,14.74c.09.1.23,0,.15-.15-3.58-4.22-6.41-9-7.09-14.59Z" style="fill: #601524"/>
    <path d="M72.62,129.5a.1.1,0,0,0,.2,0c.46-2.4.29-4.84,1.17-7.17l-.09,0a22.72,22.72,0,0,0-1.28,7.17" style="fill: #601524"/>
    <path d="M73.06,130.86c.36-1.72,1.18-3.36,1.43-5.09a6.34,6.34,0,0,1,1.8-2.84l-.05-.07a5,5,0,0,0-1.67,2,5.81,5.81,0,0,0,0-.89h-.05a6.14,6.14,0,0,1-.07,1.27,16,16,0,0,0-.79,2.44.11.11,0,0,0,.08.14,16.55,16.55,0,0,0-.86,2.94c0,.16.21.23.25.07" style="fill: #601524"/>
    <path d="M81.49,116.93a5.62,5.62,0,0,0,1.34-1.45,2.57,2.57,0,0,0,.64-1.49h-.09a7.31,7.31,0,0,1-2,2.81c-.07.08,0,.21.12.15" style="fill: #601524"/>
    <path d="M81.11,116.07a4.7,4.7,0,0,0,1.1-2.28.11.11,0,0,0-.2-.06,10.07,10.07,0,0,1-1.13,2.15c-.1.14.12.31.24.18" style="fill: #601524"/>
    <path d="M79.84,115.93c.71-.54.92-1.5,1.31-2.26l-.06,0a11.07,11.07,0,0,1-1.36,2.15c-.07.07,0,.2.11.14" style="fill: #601524"/>
    <path d="M79.88,113.74a10.94,10.94,0,0,0-.8,1.43l.1,0c.24-.49.52-1,.75-1.44Z" style="fill: #601524"/>
    <path d="M78.42,114.59a3.05,3.05,0,0,0,.47-1c0-.11-.13-.15-.17,0-.12.34-.28.65-.43,1,0,.08.07.19.13.1" style="fill: #601524"/>
    <path d="M78.32,113.06c-.27.47-.54.94-.84,1.39-.09.13.12.29.21.17a6.4,6.4,0,0,0,.73-1.51Z" style="fill: #601524"/>
    <path d="M76.76,114a9.59,9.59,0,0,0,.68-1.11c0-.08-.08-.16-.13-.08a9.31,9.31,0,0,0-.65,1.1Z" style="fill: #601524"/>
    <path d="M75.69,114.13a3.92,3.92,0,0,0,.43-1.13c0-.08-.1-.11-.13,0a7.22,7.22,0,0,1-.46,1.07.09.09,0,0,0,.16.09" style="fill: #601524"/>
    <path d="M75,114c.13-.55.23-1.12.39-1.67,0-.09-.11-.15-.15-.06a6.09,6.09,0,0,0-.5,1.66c0,.17.22.24.26.07" style="fill: #601524"/>
    <path d="M73.68,114.63a3.1,3.1,0,0,1,.47-1.6c.06-.09-.08-.2-.15-.12a3,3,0,0,0-.65,1.72c0,.21.34.22.34,0" style="fill: #601524"/>
    <path d="M72.35,112.52a9,9,0,0,0-.29,2.66.13.13,0,0,0,.26,0,16.72,16.72,0,0,1,.16-2.63Z" style="fill: #601524"/>
    <path d="M79.46,112.25a11.81,11.81,0,0,0,8.3-.27c.11,0,.07-.22-.05-.18a15.59,15.59,0,0,1-3,.77c5.34-1.81,9.6-6,12.56-10.68h0c-3.2,4.8-7.56,8.93-13.11,10.76a10.11,10.11,0,0,1-4.62-.46Z" style="fill: #601524"/>
    <path d="M67.6,105.34a19.26,19.26,0,0,0,10,6.22v0A20,20,0,0,1,74.12,110a.12.12,0,0,0,0-.12c-4-3.61-7.29-9-7.64-14.45h-.1A21.11,21.11,0,0,0,73,109.35q-1.07-.67-2.08-1.46a.11.11,0,0,0,0-.19c-2.74-2.66-5.29-6.34-5.42-10.28h-.1c0,3.79,2.21,7.36,4.85,10-.86-.7-1.69-1.44-2.52-2.23a.12.12,0,0,0-.18.17" style="fill: #601524"/>
    <path d="M106.08,126.89a22.53,22.53,0,0,1-2.43,4.4l0,0a22.43,22.43,0,0,0,2.43-4.4Z" style="fill: #601524"/>
    <path d="M102.33,133.94c-2.34,3.49-5,6.8-6.86,10.56l.07,0c2-3.72,4.51-7.07,6.83-10.57Z" style="fill: #601524"/>
    <path d="M89.54,101.13A10.65,10.65,0,0,0,92,95.83l-.1,0a11.2,11.2,0,0,1-2.41,5.27Z" style="fill: #601524"/>
    <path d="M91.12,93.49A20.82,20.82,0,0,1,88,101l.11.07a19.45,19.45,0,0,0,3.09-7.5Z" style="fill: #601524"/>
    <path d="M86.69,100c0-2.17.13-4.34.34-6.5h-.08a65,65,0,0,0-.34,6.5Z" style="fill: #601524"/>
    <path d="M75.06,104.06c.27-3.82,1-7.8,3.28-11L78.23,93a19.44,19.44,0,0,0-3.36,11,.1.1,0,0,0,.19,0" style="fill: #601524"/>
    <path d="M75.78,92.39l-.06,0a48.35,48.35,0,0,0-1.18,11c0,.12.19.12.19,0a64.75,64.75,0,0,1,1.05-11" style="fill: #601524"/>
    <path d="M73.95,94.36a28.87,28.87,0,0,0,.45,7.94h0A30.44,30.44,0,0,1,74,94.36Z" style="fill: #601524"/>
    <path d="M72.64,92.92a49.33,49.33,0,0,0,.6,8.29c0,.1.17.06.15,0a66.13,66.13,0,0,1-.7-8.24Z" style="fill: #601524"/>
    <path d="M69.14,89.06h0a1.25,1.25,0,0,1,.11-.54h0a1.28,1.28,0,0,0-.11.56" style="fill: #601524"/>
    <path d="M107.92,87.34a15.28,15.28,0,0,0-4.11,4.07l.08,0a17.07,17.07,0,0,1,4.05-4.07Z" style="fill: #601524"/>
    <path d="M82.27,87.32h0a39.2,39.2,0,0,1-.68,6.83h0a36,36,0,0,0,.66-6.84" style="fill: #601524"/>
    <path d="M80.22,93.47a22.67,22.67,0,0,0-1.59,7.28c0,.1.15.1.16,0a25.41,25.41,0,0,1,1.52-7.26Z" style="fill: #601524"/>
    <path d="M65.34,90.51l.13,0c-.37-3-1.32-6.21-3.67-8.29l0,0c2.23,2.12,3.17,5.29,3.58,8.27" style="fill: #601524"/>
    <path d="M65.13,92.8A23.48,23.48,0,0,0,62,82.65l-.05,0A25,25,0,0,1,65,92.8Z" style="fill: #601524"/>
    <path d="M80.21,71.43l0,0c3.25,4.06,6.59,8,9.64,12.26l.11-.06c-2.92-4.32-6.41-8.21-9.72-12.23" style="fill: #601524"/>
    <path d="M81,74l-.07,0c2.08,3.05,4.65,5.72,6.91,8.64l.12-.09c-2.18-3-4.83-5.57-7-8.59" style="fill: #601524"/>
    <path d="M77.41,71.89c.31,2.69,2.37,4.83,3.81,7,.06.08.19,0,.13-.07-1.42-2.17-3.45-4.28-3.88-6.92Z" style="fill: #601524"/>
    <path d="M89.19,75.44c1.4,4.24,3.1,8.36,4.24,12.69a.07.07,0,0,0,.14,0c-1-4.37-2.85-8.46-4.31-12.67Z" style="fill: #601524"/>
    <path d="M92.12,85.78a27.07,27.07,0,0,0-1.89-4.52l-.06,0A47.35,47.35,0,0,1,92,85.81Z" style="fill: #601524"/>
    <path d="M104.13,72.82l-.07,0c-.33,1.69-.57,3.39-1,5.06l.07,0c.43-1.67.67-3.38,1-5.07" style="fill: #601524"/>
    <path d="M94.59,88.77c.18-7,1.1-13.87,1.63-20.82h-.1c-.62,6.93-1.82,13.85-1.74,20.82a.11.11,0,0,0,.21,0" style="fill: #601524"/>
    <path d="M94.35,66.53l-.1,0a50.55,50.55,0,0,0-1.27,14c0,.1.17.11.17,0a57.2,57.2,0,0,1,1.2-14" style="fill: #601524"/>
    <path d="M101.44,101.24c-.11,0-.18.14-.08.18a71.09,71.09,0,0,0,8.74,2.95l0-.09c-2.93-.93-5.85-1.86-8.68-3" style="fill: #601524"/>
    <path d="M101.41,100.7c-.11,0-.11.18,0,.17,1.75-.11,3.46-.44,5.19-.69v-.09c-1.72.21-3.44.48-5.18.61" style="fill: #601524"/>
    <path d="M108,111.9,108,112c2.12,2.33,3.66,5.1,5.83,7.39l.06-.06c-2.1-2.34-3.68-5.09-5.83-7.39" style="fill: #601524"/>
    <path d="M104.65,111.43l-.11.11c3.38,3.84,6,8.43,10.16,11.55l0,0c-4.12-3.2-6.53-7.88-10.08-11.62" style="fill: #601524"/>
    <path d="M136.54,86.26c-1.24,1.59-1.44,3.72-1.5,5.66,0,.13.18.12.19,0a13.75,13.75,0,0,1,1.39-5.59Z" style="fill: #601524"/>
    <path d="M131.3,59c-1.32-2.9-2.66-5.76-2.76-9h-.11c.07,3.26,1.37,6.17,2.72,9.08,0,.1.2,0,.16-.09" style="fill: #601524"/>
    <path d="M133.46,130.81a17.45,17.45,0,0,0,.44-2.2l-.07,0a17.07,17.07,0,0,1-.44,2.2Z" style="fill: #601524"/>
    <path d="M130.54,129.59a7.36,7.36,0,0,0,.76,2.21l0,0a8.32,8.32,0,0,1-.77-2.2Z" style="fill: #601524"/>
    <path d="M118.84,126.2A24.16,24.16,0,0,0,129,132.48l0-.07a26.72,26.72,0,0,1-10.08-6.31Z" style="fill: #601524"/>
    <path d="M112.65,123.57A41.45,41.45,0,0,0,123.28,132l0,0c-4-2.28-7.2-5.4-10.5-8.55a.1.1,0,0,0-.14.14" style="fill: #601524"/>
    <path d="M98.7,103.49a29.23,29.23,0,0,0,7.87,5l0,0a51.64,51.64,0,0,1-7.76-5.12c-.09-.07-.21,0-.13.13" style="fill: #601524"/>
    <path d="M100,101.63a36.8,36.8,0,0,0,9.29,4.26v0a94.27,94.27,0,0,1-9.21-4.37.09.09,0,0,0-.09.15" style="fill: #601524"/>
    <path d="M127.73,61.91c-1.34-2.54-2.95-4.91-3.76-7.7h0c.67,2.82,2.27,5.26,3.71,7.74Z" style="fill: #601524"/>
    <path d="M128.2,75.6a26.6,26.6,0,0,0-.15,5.18h.1a33.77,33.77,0,0,1,.09-5.18Z" style="fill: #601524"/>
    <path d="M125.84,78.78a9.54,9.54,0,0,1-.15-3.4h0a9.18,9.18,0,0,0,.06,3.43Z" style="fill: #601524"/>
    <path d="M123.09,77.23a9.18,9.18,0,0,1-.12-2.41h-.06a9.29,9.29,0,0,0,.09,2.42Z" style="fill: #601524"/>
    <path d="M121.88,74.16c.09.77.05,1.54.07,2.31a.1.1,0,0,0,.19,0,12.88,12.88,0,0,0-.14-2.33Z" style="fill: #601524"/>
    <path d="M120.34,73.43l-.1-.1a2.08,2.08,0,0,0-.48,1.48.09.09,0,0,0,.17,0,2.16,2.16,0,0,1,.41-1.38" style="fill: #601524"/>
    <path d="M115.34,74.4c.32-1,.53-2.07.83-3.1,0-.08-.1-.11-.13,0a14.77,14.77,0,0,0-.95,3.07.13.13,0,0,0,.25.07" style="fill: #601524"/>
    <path d="M114.51,71.38c-.33.91-.64,1.83-1,2.72,0,.1.1.19.15.09a13.66,13.66,0,0,0,1-2.78Z" style="fill: #601524"/>
    <path d="M137.58,69.66A41,41,0,0,1,135,74.33l.12.07a23.44,23.44,0,0,0,2.46-4.73Z" style="fill: #601524"/>
    <path d="M131.47,75.53c0,.11.16.11.17,0a40.75,40.75,0,0,1,1-5l-.12,0a25.61,25.61,0,0,0-1.06,5" style="fill: #601524"/>
    <path d="M118.64,64.2c-.59-4.66-1.93-9.22-1.37-14l-.13,0c-.73,4.7.55,9.38,1.23,14,0,.15.29.12.27,0" style="fill: #601524"/>
    <path d="M114.09,33.41A20,20,0,0,0,120,37.3c.14.05.21-.15.1-.23l-.34-.21h0c-3-1.73-5-4.6-7.28-7.1-.1-.12-.26,0-.16.16a37.84,37.84,0,0,0,5.27,5.61,35.27,35.27,0,0,1-3.39-2.23Z" style="fill: #601524"/>
    <path d="M110.73,34c1.77,1.06,3.6,2,5.39,3a.14.14,0,0,0,.14-.24c-1.36-.8-2.8-1.49-4.2-2.21l.07-.07c-5.74-5.32-13.13-9.57-21-10.29v0C99.12,25,106,29.4,112,34.49l-1.16-.62Z" style="fill: #601524"/>
    <path d="M95.35,41.91c3.46-1.35,7-1.46,10.7-1.79v-.05c-3.69.19-7.35.13-10.77,1.71-.08,0,0,.18.06.14" style="fill: #601524"/>
    <path d="M91.77,42.4c3.24.71,6.6.2,9.88.11a.08.08,0,0,0,0-.16c-3.3,0-6.55.12-9.84-.21-.15,0-.18.23,0,.26" style="fill: #601524"/>
    <path d="M82.87,25a.12.12,0,0,0,0-.24c-3.62-.05-7.3,0-10.74,1.24l0,.08c3.49-1,7.11-1,10.71-1.08" style="fill: #601524"/>
    <path d="M71.72,25.87c3.2-1,6.28-2.22,9.68-2.39v0c-3.36,0-6.58,1.17-9.72,2.27-.09,0-.06.18,0,.15" style="fill: #601524"/>
    <path d="M80.65,22.52a26.62,26.62,0,0,0-7.22,2l0,.11a36.39,36.39,0,0,1,7.2-2.05Z" style="fill: #601524"/>
    <path d="M110.85,25.51c-1.94-2.81-4.75-4.77-7.24-7l0,0c2.44,2.32,5.14,4.34,7.14,7.08.06.09.21,0,.15-.09" style="fill: #601524"/>
    <path d="M116,32.73c-1.39-2.24-3-4.36-4.56-6.46l-.08,0c1.52,2.15,3,4.34,4.53,6.48Z" style="fill: #601524"/>
    <path d="M114.19,32.57c-2.65-2.29-5-4.87-7.64-7.2l-.07.07c2.59,2.36,4.93,5,7.62,7.22Z" style="fill: #601524"/>
    <path d="M100.17,43.47c-2.61.15-5.18-.1-7.79-.1a.08.08,0,0,0,0,.15,31.23,31.23,0,0,0,7.79.22c.17,0,.18-.28,0-.27" style="fill: #601524"/>
    <path d="M132.31,60.33s0,0,0,.07.23.16.26,0A62.32,62.32,0,0,0,132.94,50h-.12c-.16,3.26-.3,6.53-.49,9.79a30.3,30.3,0,0,1-.66-7.66l-.16,0c-.54,2.69.19,5.49.72,8.12a.06.06,0,0,0,.07.05" style="fill: #601524"/>
    <path d="M127.14,52c-.35,2.57,1.74,4.82,3.22,6.69l.12-.1c-1.43-2-3.26-4-3.24-6.58Z" style="fill: #601524"/>
    <path d="M128.54,61.73l-.08,0c-.15,1-.32,2-.47,2.93l.13,0c.14-1,.29-2,.42-2.94" style="fill: #601524"/>
    <path d="M114,44.19a10.16,10.16,0,0,0,0,4c0,.11.21.08.2,0a17.88,17.88,0,0,1,0-4c0-.1-.14-.11-.17,0" style="fill: #601524"/>
  </g>
</svg>
